<?xml version="1.0" encoding="UTF-8"?>
<svg version="1.1" xmlns="http://www.w3.org/2000/svg" width="820" height="932">
<path d="M0 0 C270.6 0 541.2 0 820 0 C820 307.56 820 615.12 820 932 C549.4 932 278.8 932 0 932 C0 624.44 0 316.88 0 0 Z " fill="#FEFEFE" transform="translate(0,0)"/>
<path d="M0 0 C31.68 0 63.36 0 96 0 C96 38.61 96 77.22 96 117 C132.63 117 169.26 117 207 117 C207 150.33 207 183.66 207 218 C170.37 218 133.74 218 96 218 C96 256.28 96 294.56 96 334 C64.32 334 32.64 334 0 334 C0 295.72 0 257.44 0 218 C-36.3 218 -72.6 218 -110 218 C-110 184.67 -110 151.34 -110 117 C-73.7 117 -37.4 117 0 117 C0 78.39 0 39.78 0 0 Z " fill="#E21518" transform="translate(370,142)"/>
<path d="M0 0 C7.49307536 -0.02531347 14.98613973 -0.04285144 22.47924805 -0.05493164 C25.02938245 -0.05996662 27.57951395 -0.06679496 30.12963867 -0.07543945 C33.79086012 -0.08754149 37.45204348 -0.09323661 41.11328125 -0.09765625 C42.82902092 -0.10539818 42.82902092 -0.10539818 44.579422 -0.11329651 C45.64029526 -0.11337204 46.70116852 -0.11344757 47.79418945 -0.11352539 C48.72906693 -0.115746 49.6639444 -0.11796661 50.62715149 -0.12025452 C53 0 53 0 56 1 C56 1.66 56 2.32 56 3 C56.845625 3.04125 57.69125 3.0825 58.5625 3.125 C64.31198119 4.5885043 67.81552877 8.06536366 70.875 13.0625 C71.92237052 15.7973008 72.64629029 18.0995804 73 21 C73.12375 22.010625 73.2475 23.02125 73.375 24.0625 C72.82239019 29.86490303 70.41766971 34.74156837 68 40 C67.34 40 66.68 40 66 40 C65.67 41.32 65.34 42.64 65 44 C64.0409375 44.1546875 64.0409375 44.1546875 63.0625 44.3125 C62.381875 44.539375 61.70125 44.76625 61 45 C60.67 45.99 60.34 46.98 60 48 C59.01 48.33 58.02 48.66 57 49 C57.67854511 53.58017951 60.4340397 56.49203823 63.6875 59.625 C65 61 65 61 66 64 C66.5775 64.556875 67.155 65.11375 67.75 65.6875 C70.27266349 68.28023748 71.9343825 70.98955174 73.75390625 74.09765625 C74.94083943 76.05728622 74.94083943 76.05728622 76.65234375 77.62109375 C78 79 78 79 78 81 C78.66 81 79.32 81 80 81 C83 84.46153846 83 84.46153846 83 87 C74.09 87 65.18 87 56 87 C56 86.34 56 85.68 56 85 C55.01 84.67 54.02 84.34 53 84 C52.33333333 82 51.66666667 80 51 78 C50.01 77.67 49.02 77.34 48 77 C48 76.34 48 75.68 48 75 C47.34 75 46.68 75 46 75 C44.81640625 73.64453125 44.81640625 73.64453125 43.5625 71.8125 C43.12164062 71.17054688 42.68078125 70.52859375 42.2265625 69.8671875 C40.07252625 66.58811321 38.13781933 63.28666421 36.4375 59.75 C33.59501206 56.54309053 32.93397582 56.60471714 28.84765625 56.328125 C27.94152588 56.26012695 27.03539551 56.19212891 26.10180664 56.12207031 C25.40821045 56.08178711 24.71461426 56.04150391 24 56 C24.00785522 57.40076782 24.00785522 57.40076782 24.01586914 58.82983398 C24.0328762 62.28312796 24.04543302 65.73637767 24.05493164 69.18969727 C24.05997121 70.68644918 24.06680287 72.18319616 24.07543945 73.67993164 C24.08752159 75.82699807 24.09323191 77.97399962 24.09765625 80.12109375 C24.10551147 82.06133423 24.10551147 82.06133423 24.11352539 84.04077148 C24 87 24 87 23 88 C21.37742456 88.0991657 19.75060169 88.13079777 18.125 88.1328125 C17.14015625 88.13410156 16.1553125 88.13539063 15.140625 88.13671875 C14.10421875 88.13285156 13.0678125 88.12898437 12 88.125 C10.44539063 88.13080078 10.44539063 88.13080078 8.859375 88.13671875 C7.87453125 88.13542969 6.8896875 88.13414062 5.875 88.1328125 C4.96492188 88.13168457 4.05484375 88.13055664 3.1171875 88.12939453 C1 88 1 88 0 87 C-0.09514592 84.29161914 -0.12554932 81.60881487 -0.11352539 78.90014648 C-0.11367142 78.05143982 -0.11381744 77.20273315 -0.1139679 76.32830811 C-0.11326848 73.50921109 -0.10547478 70.69017929 -0.09765625 67.87109375 C-0.09579217 65.92196183 -0.09436822 63.97282945 -0.09336853 62.0236969 C-0.08954255 56.88293168 -0.07971159 51.74219453 -0.06866455 46.60144043 C-0.05845215 41.35994852 -0.05387128 36.1184521 -0.04882812 30.87695312 C-0.03808939 20.58462306 -0.02101201 10.29231386 0 0 Z " fill="#09090A" transform="translate(450,555)"/>
<path d="M0 0 C6.93 0 13.86 0 21 0 C21 30.03 21 60.06 21 91 C14.07 91 7.14 91 0 91 C0 89.35 0 87.7 0 86 C-1.010625 86.61875 -2.02125 87.2375 -3.0625 87.875 C-10.71515522 92.16535541 -18.34437327 92.74504129 -27 92 C-29.6640625 91.09765625 -29.6640625 91.09765625 -32 90 C-32.98226563 89.55720703 -32.98226563 89.55720703 -33.984375 89.10546875 C-38.79374198 86.60502353 -38.79374198 86.60502353 -39.9375 83.25 C-39.958125 82.5075 -39.97875 81.765 -40 81 C-40.66 81 -41.32 81 -42 81 C-48.84208551 72.4992271 -47.90915509 59.48122717 -47 49 C-46.11468612 45.08112244 -45.02983532 41.4818343 -43 38 C-42.01 37.505 -42.01 37.505 -41 37 C-40.7525 36.030625 -40.505 35.06125 -40.25 34.0625 C-39 31 -39 31 -35.875 29.625 C-34.92625 29.41875 -33.9775 29.2125 -33 29 C-33 28.34 -33 27.68 -33 27 C-24.99305891 22.01790332 -17.06833432 22.59943554 -8 23 C-8 23.66 -8 24.32 -8 25 C-5.36 25.33 -2.72 25.66 0 26 C0 17.42 0 8.84 0 0 Z " fill="#0B0B0D" transform="translate(368,695)"/>
<path d="M0 0 C7.59 0 15.18 0 23 0 C23 10.56 23 21.12 23 32 C33.56 32 44.12 32 55 32 C55 21.77 55 11.54 55 1 C62.26 1 69.52 1 77 1 C77 29.38 77 57.76 77 87 C70.07 87 63.14 87 56 87 C56 74.46 56 61.92 56 49 C45.11 49 34.22 49 23 49 C23 61.87 23 74.74 23 88 C15.41 88 7.82 88 0 88 C0 58.96 0 29.92 0 0 Z " fill="#0A0A0B" transform="translate(62,698)"/>
<path d="M0 0 C0 0.66 0 1.32 0 2 C1.670625 1.9690625 1.670625 1.9690625 3.375 1.9375 C9.6792803 2.70165519 13.98192364 7.3966976 18 12 C21 17.31372549 21 17.31372549 21 20 C21.66 20 22.32 20 23 20 C25.53067287 29.97866943 25.84749821 43.77984345 21.21484375 53.078125 C19.34325125 56.0389723 17.48527973 58.51472027 15 61 C14.34 61 13.68 61 13 61 C12.7215625 61.8971875 12.7215625 61.8971875 12.4375 62.8125 C10.30132239 66.06320506 7.58201912 66.66433186 4 68 C3.21278564 68.35433105 2.42557129 68.70866211 1.61450195 69.07373047 C-1.27412114 70.09711603 -3.46359367 70.22945705 -6.51953125 70.1953125 C-7.54111328 70.18886719 -8.56269531 70.18242188 -9.61523438 70.17578125 C-11.19788086 70.15064453 -11.19788086 70.15064453 -12.8125 70.125 C-13.88693359 70.11597656 -14.96136719 70.10695313 -16.06835938 70.09765625 C-18.71246854 70.07415306 -21.35611872 70.04129575 -24 70 C-24 69.34 -24 68.68 -24 68 C-24.99 68 -25.98 68 -27 68 C-27 67.34 -27 66.68 -27 66 C-27.721875 65.896875 -28.44375 65.79375 -29.1875 65.6875 C-34.81913027 64.31087927 -37.54163993 61.49586809 -41 57 C-41.99 56.34 -42.98 55.68 -44 55 C-48.65630964 44.98659833 -49.92507215 32.95614641 -47 22.25 C-43.960022 14.65725873 -38.54387442 6.53117526 -31 3 C-27.125 2.25 -27.125 2.25 -24 2 C-24 1.34 -24 0.68 -24 0 C-15.97593875 -1.68927605 -8.05192211 -1.19287735 0 0 Z " fill="#0D0D0E" transform="translate(203,718)"/>
<path d="M0 0 C0 0.66 0 1.32 0 2 C0.804375 2.28875 1.60875 2.5775 2.4375 2.875 C5 4 5 4 6 6 C6.99 6.33 7.98 6.66 9 7 C9 7.99 9 8.98 9 10 C9.61875 10.2475 10.2375 10.495 10.875 10.75 C13.41530728 12.2442984 14.02864183 13.24781851 15 16 C15 17.32 15 18.64 15 20 C15.66 20 16.32 20 17 20 C17.14700894 23.95793295 17.2346378 27.91515092 17.3125 31.875 C17.35439453 32.98359375 17.39628906 34.0921875 17.43945312 35.234375 C17.55462627 43.06614853 16.1511491 48.36303558 12 55 C11.443125 55.9075 10.88625 56.815 10.3125 57.75 C2.13134703 65.71004072 -7.13718858 68.39268461 -18.25 68.375 C-19.18642334 68.37483887 -20.12284668 68.37467773 -21.08764648 68.37451172 C-27.76058148 68.26392666 -33.1595125 67.3976509 -39 64 C-39.69738281 63.66355469 -40.39476562 63.32710937 -41.11328125 62.98046875 C-45.55212721 60.67373928 -47.33420566 57.55317119 -49 53 C-49.515625 52.21625 -50.03125 51.4325 -50.5625 50.625 C-55.73242903 41.18426004 -53.89324784 24.46325918 -50.9921875 14.40625 C-49.55639607 10.92417315 -48.05074902 9.19028135 -45 7 C-44.34 7 -43.68 7 -43 7 C-42.67 6.01 -42.34 5.02 -42 4 C-39.9375 3.3125 -39.9375 3.3125 -38 3 C-38 2.34 -38 1.68 -38 1 C-25.73655219 -3.48662725 -12.5981588 -2.87957915 0 0 Z " fill="#0B0B0C" transform="translate(591,576)"/>
<path d="M0 0 C2.10847098 0.00537626 4.21673066 0.00002085 6.32519531 -0.00634766 C7.68196661 -0.00568708 9.03873778 -0.00440633 10.39550781 -0.00244141 C11.61189941 -0.00131348 12.82829102 -0.00018555 14.08154297 0.00097656 C17.30288904 0.12357554 20.31933784 0.52234317 23.48144531 1.13037109 C23.48144531 1.79037109 23.48144531 2.45037109 23.48144531 3.13037109 C24.24457031 3.25412109 25.00769531 3.37787109 25.79394531 3.50537109 C28.48144531 4.13037109 28.48144531 4.13037109 31.48144531 6.13037109 C31.48144531 6.79037109 31.48144531 7.45037109 31.48144531 8.13037109 C32.47144531 8.46037109 33.46144531 8.79037109 34.48144531 9.13037109 C36.78742209 15.66413164 36.74412747 21.98070195 36.67675781 28.84912109 C36.67392792 29.94760376 36.67109802 31.04608643 36.66818237 32.17785645 C36.65705017 35.66214209 36.6319583 39.14616405 36.60644531 42.63037109 C36.59640653 45.0027632 36.58728225 47.37515936 36.57910156 49.74755859 C36.55713361 55.54192994 36.52265179 61.33610591 36.48144531 67.13037109 C29.55144531 67.13037109 22.62144531 67.13037109 15.48144531 67.13037109 C15.48144531 65.15037109 15.48144531 63.17037109 15.48144531 61.13037109 C11.33474492 63.50666199 11.33474492 63.50666199 8.48144531 67.13037109 C1.04627367 69.65552373 -8.90397427 71.00361661 -16.28027344 68.00927734 C-18.4459325 66.80915545 -20.49788181 65.5591297 -22.51855469 64.13037109 C-22.51855469 63.14037109 -22.51855469 62.15037109 -22.51855469 61.13037109 C-23.50855469 60.80037109 -24.49855469 60.47037109 -25.51855469 60.13037109 C-25.51855469 59.47037109 -25.51855469 58.81037109 -25.51855469 58.13037109 C-26.17855469 58.13037109 -26.83855469 58.13037109 -27.51855469 58.13037109 C-30.04457388 53.07833271 -29.39681989 44.01544954 -27.76464844 38.65380859 C-25.93747019 35.2860683 -24.00515405 33.57310186 -20.51855469 32.13037109 C-20.18855469 31.14037109 -19.85855469 30.15037109 -19.51855469 29.13037109 C-8.60699332 23.88442813 3.60426389 23.80984746 15.48144531 24.13037109 C14.1209818 19.67794505 12.54265232 17.46306956 8.48144531 15.13037109 C5.04610279 14.52114779 1.65220391 14.43452776 -1.83105469 14.38037109 C-2.76240234 14.35072266 -3.69375 14.32107422 -4.65332031 14.29052734 C-6.94181734 14.22011205 -9.22931278 14.16727895 -11.51855469 14.13037109 C-11.51855469 14.79037109 -11.51855469 15.45037109 -11.51855469 16.13037109 C-15.37964009 17.56705403 -18.41498168 18.24222317 -22.51855469 18.13037109 C-22.54540148 15.48447095 -22.56531825 12.83884014 -22.58105469 10.19287109 C-22.58943359 9.438125 -22.5978125 8.68337891 -22.60644531 7.90576172 C-22.6150791 5.98042796 -22.57079802 4.05501528 -22.51855469 2.13037109 C-18.25595028 -2.13223332 -5.73158467 -0.01741716 0 0 Z " fill="#0C0C0E" transform="translate(694.5185546875,574.86962890625)"/>
<path d="M0 0 C1.16781006 0.00523682 2.33562012 0.01047363 3.53881836 0.01586914 C4.79887695 0.0190918 6.05893555 0.02231445 7.35717773 0.02563477 C8.6976732 0.03399136 10.03816799 0.04245632 11.37866211 0.05102539 C12.72306153 0.05603879 14.06746271 0.06060197 15.41186523 0.06469727 C18.71334151 0.07653051 22.01473014 0.09301568 25.31616211 0.11352539 C25.31616211 0.77352539 25.31616211 1.43352539 25.31616211 2.11352539 C26.08702148 2.13930664 26.85788086 2.16508789 27.65209961 2.19165039 C29.15643555 2.27672852 29.15643555 2.27672852 30.69116211 2.36352539 C32.18776367 2.43313477 32.18776367 2.43313477 33.71459961 2.50415039 C36.31616211 3.11352539 36.31616211 3.11352539 37.54272461 5.09008789 C37.79795898 5.75782227 38.05319336 6.42555664 38.31616211 7.11352539 C40.28289126 8.26360849 40.28289126 8.26360849 42.31616211 9.11352539 C46.46348739 13.26085067 46.42938233 19.92410794 46.54321289 25.54150391 C46.54290085 27.52517467 46.5318789 29.50886579 46.51147461 31.49243164 C46.50864471 32.54510727 46.50581482 33.5977829 46.50289917 34.68235779 C46.49178773 38.01370055 46.46670008 41.34476516 46.44116211 44.67602539 C46.43112063 46.94750586 46.42199683 49.21899058 46.41381836 51.49047852 C46.39358759 57.03168509 46.35442145 62.57229731 46.31616211 68.11352539 C39.38616211 68.11352539 32.45616211 68.11352539 25.31616211 68.11352539 C24.98616211 66.46352539 24.65616211 64.81352539 24.31616211 63.11352539 C20.85116211 64.10352539 20.85116211 64.10352539 17.31616211 65.11352539 C17.31616211 65.77352539 17.31616211 66.43352539 17.31616211 67.11352539 C7.907954 70.00835865 -1.70220973 70.60433947 -10.68383789 66.11352539 C-10.68383789 65.45352539 -10.68383789 64.79352539 -10.68383789 64.11352539 C-11.26133789 64.09290039 -11.83883789 64.07227539 -12.43383789 64.05102539 C-15.26769428 62.8702519 -16.51277234 61.30370829 -17.91040039 58.59790039 C-19.92797761 52.1171978 -20.01893888 44.64618311 -17.61352539 38.28149414 C-14.00977681 32.34417065 -9.19685694 29.37097356 -2.54321289 27.51708984 C-0.34558715 27.05800702 1.84507056 26.69007157 4.06616211 26.36352539 C4.84459473 26.24066162 5.62302734 26.11779785 6.42504883 25.99121094 C12.73669239 25.05728554 18.93841126 24.77587976 25.31616211 25.11352539 C24.71432462 23.09307097 24.04310115 21.092415 23.31616211 19.11352539 C22.65616211 18.78352539 21.99616211 18.45352539 21.31616211 18.11352539 C21.31616211 17.45352539 21.31616211 16.79352539 21.31616211 16.11352539 C17.79548859 16.02569997 14.27510067 15.97285896 10.75366211 15.92602539 C9.76301758 15.90088867 8.77237305 15.87575195 7.75170898 15.84985352 C1.67561882 15.78929448 -2.23738059 16.49675335 -7.68383789 19.11352539 C-9.33383789 19.11352539 -10.98383789 19.11352539 -12.68383789 19.11352539 C-12.68383789 13.83352539 -12.68383789 8.55352539 -12.68383789 3.11352539 C-11.21946289 2.80415039 -9.75508789 2.49477539 -8.24633789 2.17602539 C-5.18929038 1.53017028 -2.96260075 0.12531696 0 0 Z " fill="#0B0B0D" transform="translate(728.683837890625,717.886474609375)"/>
<path d="M0 0 C1.65 0.33 3.3 0.66 5 1 C5 8.59 5 16.18 5 24 C0 24 0 24 -1.5 22.75 C-1.995 22.1725 -2.49 21.595 -3 21 C-10.00477267 14.7735354 -15.86719219 13.54349467 -24.9375 13.8125 C-25.81212891 13.82603516 -26.68675781 13.83957031 -27.58789062 13.85351562 C-29.72553086 13.88855891 -31.86284984 13.94235459 -34 14 C-34.495 15.485 -34.495 15.485 -35 17 C-35.99 17.33 -36.98 17.66 -38 18 C-41.39288642 20.54466482 -42.44003178 24.1709871 -44 28 C-44.33 28.33 -44.66 28.66 -45 29 C-45.08737645 30.85369611 -45.10698153 32.71067541 -45.09765625 34.56640625 C-45.09282227 36.2534668 -45.09282227 36.2534668 -45.08789062 37.97460938 C-45.07951172 39.15861328 -45.07113281 40.34261719 -45.0625 41.5625 C-45.05798828 42.75037109 -45.05347656 43.93824219 -45.04882812 45.16210938 C-45.03699675 48.10812226 -45.02051287 51.05403681 -45 54 C-44.34 54 -43.68 54 -43 54 C-42.5875 55.0725 -42.175 56.145 -41.75 57.25 C-39.51551122 62.38104831 -36.55856774 65.276806 -31.28125 67.40625 C-26.30917491 68.70035173 -21.11344431 68.77700769 -16 69 C-16 68.34 -16 67.68 -16 67 C-15.45472656 66.78085937 -14.90945312 66.56171875 -14.34765625 66.3359375 C-9.06106967 64.11286007 -4.55667242 61.48728622 0.0546875 58.07421875 C0.69664062 57.71972656 1.33859375 57.36523438 2 57 C3.485 57.495 3.485 57.495 5 58 C5 64.6 5 71.2 5 78 C-2.84392708 82.5895318 -8.7904601 86.02586949 -18 86 C-19.2271875 86.05929687 -20.454375 86.11859375 -21.71875 86.1796875 C-30.93745824 86.53695001 -38.30902914 85.33352307 -47 82 C-47 81.34 -47 80.68 -47 80 C-47.86625 79.814375 -47.86625 79.814375 -48.75 79.625 C-51.02335767 78.99351176 -52.9253529 78.11141809 -55 77 C-55 76.34 -55 75.68 -55 75 C-56.32 74.67 -57.64 74.34 -59 74 C-59 73.34 -59 72.68 -59 72 C-59.66 72 -60.32 72 -61 72 C-61.4021875 70.5459375 -61.4021875 70.5459375 -61.8125 69.0625 C-62.204375 68.051875 -62.59625 67.04125 -63 66 C-63.99 65.67 -64.98 65.34 -66 65 C-67.0625 62.3125 -67.0625 62.3125 -68 59 C-68.34160156 58.15953125 -68.68320313 57.3190625 -69.03515625 56.453125 C-70.34975261 51.74825381 -70.38285998 47.30199875 -70.375 42.4375 C-70.37411377 41.46111572 -70.37322754 40.48473145 -70.37231445 39.47875977 C-70.2108727 29.58492059 -68.29105664 21.48018666 -63 13 C-62.67 12.34 -62.34 11.68 -62 11 C-61.34 11 -60.68 11 -60 11 C-59.62875 9.7934375 -59.62875 9.7934375 -59.25 8.5625 C-58.8375 7.716875 -58.425 6.87125 -58 6 C-55.9375 5.375 -55.9375 5.375 -54 5 C-53.67 4.01 -53.34 3.02 -53 2 C-38.66935027 -7.58220031 -15.02603161 -8.42923725 0 0 Z " fill="#0C0C0E" transform="translate(176,558)"/>
<path d="M0 0 C0 0.66 0 1.32 0 2 C1.216875 2.20625 2.43375 2.4125 3.6875 2.625 C8.37403719 3.79043517 10.21063391 6.04839804 13 10 C13.70125 10.78375 14.4025 11.5675 15.125 12.375 C21.42914559 21.20080382 20 27.37674547 20 39 C4.49 39 -11.02 39 -27 39 C-25.515 43.95 -25.515 43.95 -24 49 C-12.652988 54.673506 0.11736446 53.49489281 12 50 C12 49.34 12 48.68 12 48 C15.465 47.505 15.465 47.505 19 47 C19 52.61 19 58.22 19 64 C14.55007426 65.77997029 12.56288469 66.21222719 8 66 C8 66.66 8 67.32 8 68 C2.40972752 69.17245648 -3.06576364 69.1836593 -8.75 69.1875 C-9.6884375 69.19974609 -10.626875 69.21199219 -11.59375 69.22460938 C-17.95683655 69.23779257 -23.81478925 68.48731566 -30 67 C-30 66.34 -30 65.68 -30 65 C-31.5159375 64.7215625 -31.5159375 64.7215625 -33.0625 64.4375 C-38.65060585 62.81989041 -42.23011209 58.77514146 -45.29296875 53.97265625 C-50.13288796 44.8694147 -50.53612361 33.25852981 -48.10546875 23.35546875 C-47.15542471 20.52547889 -46.14903108 17.75459683 -45 15 C-44.34 15 -43.68 15 -43 15 C-42.67 13.68 -42.34 12.36 -42 11 C-41.34 11 -40.68 11 -40 11 C-40 10.01 -40 9.02 -40 8 C-29.01063366 -0.92886015 -13.4933381 -2.2967384 0 0 Z " fill="#0B0B0D" transform="translate(596,718)"/>
<path d="M0 0 C6.93 0 13.86 0 21 0 C21.06058594 2.9390625 21.12117188 5.878125 21.18359375 8.90625 C21.24551279 11.77248374 21.30884658 14.638683 21.37231445 17.50488281 C21.41545907 19.48727307 21.45714732 21.46969561 21.49731445 23.45214844 C21.5555164 26.31194765 21.6190634 29.17158742 21.68359375 32.03125 C21.70030624 32.90865845 21.71701874 33.78606689 21.73423767 34.69006348 C21.85699772 39.86179141 22.27154175 44.87746084 23 50 C24.85408125 50.02740022 26.70828469 50.04657422 28.5625 50.0625 C30.11130859 50.07990234 30.11130859 50.07990234 31.69140625 50.09765625 C35.63187043 50.04324854 35.63187043 50.04324854 42 49 C42.33 32.83 42.66 16.66 43 0 C50.59 0 58.18 0 66 0 C66 22.11 66 44.22 66 67 C58.41 67 50.82 67 43 67 C43 65.35 43 63.7 43 62 C41.68445015 62.4495045 40.37261642 62.90989716 39.0625 63.375 C38.33160156 63.63023437 37.60070312 63.88546875 36.84765625 64.1484375 C34.81317884 64.85271413 34.81317884 64.85271413 34 67 C26.49116617 69.70386906 17.42035373 68.28318576 10 66 C10 65.34 10 64.68 10 64 C9.39542969 63.89816406 8.79085938 63.79632812 8.16796875 63.69140625 C5.60763268 62.87486664 4.86890274 62.09289686 3.3125 59.9375 C2.89613281 59.38964844 2.47976563 58.84179688 2.05078125 58.27734375 C-0.9294602 51.81830746 -0.133277 43.67998333 -0.09765625 36.71875 C-0.0962413 35.66465942 -0.09482635 34.61056885 -0.09336853 33.52453613 C-0.08780508 30.18299429 -0.07525941 26.84152133 -0.0625 23.5 C-0.05748027 21.22395931 -0.0529182 18.94791755 -0.04882812 16.671875 C-0.03870178 11.11453593 -0.0191193 5.55734439 0 0 Z " fill="#09090A" transform="translate(254,576)"/>
<path d="M0 0 C5.28 0 10.56 0 16 0 C16 0.66 16 1.32 16 2 C17.27875 2.268125 18.5575 2.53625 19.875 2.8125 C23.49675855 3.57190099 23.80051868 3.70077803 26 7 C26 7.99 26 8.98 26 10 C26.66 10 27.32 10 28 10 C28.495 12.475 28.495 12.475 29 15 C29.66 15 30.32 15 31 15 C31 32.49 31 49.98 31 68 C23.74 68 16.48 68 9 68 C8.67 52.16 8.34 36.32 8 20 C4.20572728 19.24114546 1.28773207 18.8643603 -2.5 18.875 C-3.4178125 18.87242187 -4.335625 18.86984375 -5.28125 18.8671875 C-8.40396891 18.95249447 -8.40396891 18.95249447 -13 20 C-13 35.84 -13 51.68 -13 68 C-20.26 68 -27.52 68 -35 68 C-35 45.89 -35 23.78 -35 1 C-27.74 1 -20.48 1 -13 1 C-13 2.98 -13 4.96 -13 7 C-11.906875 6.54625 -10.81375 6.0925 -9.6875 5.625 C-9.07261719 5.36976563 -8.45773437 5.11453125 -7.82421875 4.8515625 C-5.73466068 3.93193308 -5.73466068 3.93193308 -3 2 C-2.01 2 -1.02 2 0 2 C0 1.34 0 0.68 0 0 Z " fill="#0F0F10" transform="translate(665,718)"/>
<path d="M0 0 C7.26 0 14.52 0 22 0 C22.03738281 3.21363281 22.07476562 6.42726563 22.11328125 9.73828125 C22.15947434 12.84601707 22.2107161 15.95363138 22.26245117 19.0612793 C22.29573322 21.22331375 22.32375485 23.38543577 22.34643555 25.54760742 C22.37992108 28.65321218 22.432234 31.75801198 22.48828125 34.86328125 C22.49467117 35.83211746 22.5010611 36.80095367 22.50764465 37.79914856 C22.53733589 39.15020943 22.53733589 39.15020943 22.56762695 40.52856445 C22.57873001 41.32132278 22.58983307 42.11408112 22.60127258 42.93086243 C23.09362842 45.48587097 24.11657072 46.27952433 26 48 C26 48.66 26 49.32 26 50 C27.87561967 49.88467064 29.75049841 49.7572641 31.625 49.625 C32.66914063 49.55539062 33.71328125 49.48578125 34.7890625 49.4140625 C38.53353844 49.03581962 38.53353844 49.03581962 44 47 C44 31.49 44 15.98 44 0 C51.26 0 58.52 0 66 0 C66 21.78 66 43.56 66 66 C58.74 66 51.48 66 44 66 C44 64.02 44 62.04 44 60 C41.88608838 60.94761555 40.2618526 61.71320906 38.6875 63.4375 C32.91169553 68.7854671 26.10971443 68.52154062 18.60546875 68.34375 C13.03543751 67.8126961 9.36802059 66.46567092 5.484375 62.421875 C-0.25852246 55.09472997 -0.28268526 47.3303516 -0.1953125 38.37890625 C-0.1924826 37.27900864 -0.18965271 36.17911102 -0.18673706 35.04588318 C-0.1755898 31.55130897 -0.15049498 28.05699606 -0.125 24.5625 C-0.11496316 22.18555059 -0.10583854 19.80859714 -0.09765625 17.43164062 C-0.07737448 11.62091338 -0.03821463 5.81074737 0 0 Z " fill="#0E0E10" transform="translate(408,720)"/>
<path d="M0 0 C0 0.66 0 1.32 0 2 C1.299375 2.0928125 1.299375 2.0928125 2.625 2.1875 C6.91867418 3.2211623 8.96129901 4.81996408 12 8 C12.875 11.3125 12.875 11.3125 13 14 C13.66 14 14.32 14 15 14 C16.22024564 19.70010938 16.12702021 25.28871925 16.09765625 31.0859375 C16.0962413 32.14285797 16.09482635 33.19977844 16.09336853 34.28872681 C16.0877894 37.65084716 16.07524069 41.01289991 16.0625 44.375 C16.05748231 46.66015529 16.05291987 48.94531162 16.04882812 51.23046875 C16.03867945 56.82035923 16.01909987 62.41010431 16 68 C8.41 68 0.82 68 -7 68 C-7.33 51.83 -7.66 35.66 -8 19 C-20.86862915 18.67001684 -20.86862915 18.67001684 -29 20 C-29 35.84 -29 51.68 -29 68 C-35.93 68 -42.86 68 -50 68 C-50 46.22 -50 24.44 -50 2 C-43.07 2 -36.14 2 -29 2 C-28.67 3.65 -28.34 5.3 -28 7 C-26.68 6.67 -25.36 6.34 -24 6 C-24 5.34 -24 4.68 -24 4 C-15.83073644 0.3328356 -8.91208829 -0.51007183 0 0 Z " fill="#0D0D0F" transform="translate(292,718)"/>
<path d="M0 0 C19.47 0 38.94 0 59 0 C59 14.65116279 59 14.65116279 54 20 C53.48179687 20.50917969 52.96359375 21.01835938 52.4296875 21.54296875 C50.88395233 23.04295007 50.88395233 23.04295007 49.4375 25.1875 C48.963125 25.785625 48.48875 26.38375 48 27 C47.34 27 46.68 27 46 27 C45.85884766 27.88945313 45.85884766 27.88945313 45.71484375 28.796875 C44.84054781 31.49142641 43.73279682 32.46322756 41.5625 34.25 C40.94503906 34.77078125 40.32757813 35.2915625 39.69140625 35.828125 C38 37 38 37 36 37 C35.773125 37.721875 35.54625 38.44375 35.3125 39.1875 C33.73664872 42.56432417 31.79123384 44.55767039 29 47 C28.34 47 27.68 47 27 47 C27 47.99 27 48.98 27 50 C28.44620728 49.99214478 28.44620728 49.99214478 29.92163086 49.98413086 C33.48672564 49.96607882 37.05181636 49.95456726 40.61694336 49.94506836 C42.16219766 49.9400286 43.70744716 49.9331968 45.25268555 49.92456055 C47.46925029 49.91247924 49.68575218 49.90676827 51.90234375 49.90234375 C52.5971434 49.89718246 53.29194305 49.89202118 54.00779724 49.88670349 C55.6722933 49.88650723 57.33665499 49.93810871 59 50 C63.01386486 54.01386486 60 61.32353788 60 67 C39.54 67 19.08 67 -2 67 C-2 52 -2 52 0.875 47.5625 C3.53383459 45 3.53383459 45 6 45 C6.26554687 44.41863281 6.53109375 43.83726562 6.8046875 43.23828125 C9.74500448 37.73239358 14.45936346 33.36077491 19.1875 29.375 C22.50101418 26.57223945 24.69652314 23.70201638 27 20 C28.32 18.68 29.64 17.36 31 16 C20.77 16 10.54 16 0 16 C0 10.72 0 5.44 0 0 Z " fill="#101011" transform="translate(335,576)"/>
<path d="M0 0 C11.22 0 22.44 0 34 0 C34.04010881 17.76820254 34.04010881 17.76820254 34.04882812 25.34960938 C34.05480288 30.52011137 34.06186669 35.69059563 34.07543945 40.86108398 C34.08631499 45.03022773 34.09228674 49.19935246 34.09487724 53.36850929 C34.09672307 54.95809033 34.1003275 56.54767034 34.10573006 58.13724327 C34.11300241 60.36585098 34.11398833 62.59438036 34.11352539 64.82299805 C34.115746 66.09096725 34.11796661 67.35893646 34.12025452 68.66532898 C34.01509568 71.58139505 33.67981337 74.17066066 33 77 C32.34 77 31.68 77 31 77 C30.855625 77.598125 30.71125 78.19625 30.5625 78.8125 C29.49140589 82.97786598 28.80279295 84.42910165 25.125 86.625 C24.42632813 87.05039062 23.72765625 87.47578125 23.0078125 87.9140625 C19.57144956 89.77264012 16.83841489 90.1279308 13 90.1328125 C12.030625 90.13410156 11.06125 90.13539063 10.0625 90.13671875 C8.5465625 90.13091797 8.5465625 90.13091797 7 90.125 C5.989375 90.12886719 4.97875 90.13273438 3.9375 90.13671875 C2.968125 90.13542969 1.99875 90.13414062 1 90.1328125 C-0.3303125 90.13112061 -0.3303125 90.13112061 -1.6875 90.12939453 C-4 90 -4 90 -7 89 C-7 84.38 -7 79.76 -7 75 C-2.05 75 2.9 75 8 75 C10.21716408 70.56567184 11.12435791 67.66361689 11.20532227 62.79418945 C11.22526749 61.73331619 11.24521271 60.67244293 11.26576233 59.579422 C11.28247482 58.43559555 11.29918732 57.2917691 11.31640625 56.11328125 C11.33718735 54.94113571 11.35796844 53.76899017 11.37937927 52.56132507 C11.44483818 48.81177714 11.50374296 45.06215837 11.5625 41.3125 C11.60568868 38.77277909 11.64930308 36.23306538 11.69335938 33.69335938 C11.8005159 27.46231245 11.90179388 21.23119416 12 15 C8.04 15 4.08 15 0 15 C0 10.05 0 5.1 0 0 Z " fill="#0B0B0C" transform="translate(618,576)"/>
<path d="M0 0 C7.26 0 14.52 0 22 0 C22 2.64 22 5.28 22 8 C22.680625 7.13375 22.680625 7.13375 23.375 6.25 C30.76013197 -0.08011311 38.61922113 -0.4363153 48 0 C48 6.6 48 13.2 48 20 C40.125 19.9375 40.125 19.9375 37.71142578 19.90991211 C32.00458214 19.88848899 26.76115825 20.42388417 21 21 C21 35.85 21 50.7 21 66 C14.07 66 7.14 66 0 66 C0 44.22 0 22.44 0 0 Z " fill="#0D0D0F" transform="translate(195,576)"/>
<path d="M0 0 C6.93 0 13.86 0 21 0 C21 2.64 21 5.28 21 8 C22.24716797 7.25943359 22.24716797 7.25943359 23.51953125 6.50390625 C24.60621094 5.86324219 25.69289063 5.22257813 26.8125 4.5625 C27.89144531 3.92441406 28.97039063 3.28632812 30.08203125 2.62890625 C35.82757984 -0.57844818 40.53089127 -0.07610716 47 0 C47 6.6 47 13.2 47 20 C44.79570313 20.09087891 44.79570313 20.09087891 42.546875 20.18359375 C40.61457395 20.26801467 38.68228278 20.3526619 36.75 20.4375 C35.78191406 20.47681641 34.81382812 20.51613281 33.81640625 20.55664062 C32.88183594 20.59853516 31.94726562 20.64042969 30.984375 20.68359375 C29.69611816 20.73858032 29.69611816 20.73858032 28.38183594 20.79467773 C25.70190314 20.96238164 25.70190314 20.96238164 22 22 C21.67 36.52 21.34 51.04 21 66 C14.07 66 7.14 66 0 66 C0 44.22 0 22.44 0 0 Z " fill="#08080A" transform="translate(493,720)"/>
<path d="M0 0 C31.68 0 63.36 0 96 0 C96 38.61 96 77.22 96 117 C95.67 117 95.34 117 95 117 C95 79.05 95 41.1 95 2 C64.31 2 33.62 2 2 2 C2 40.61 2 79.22 2 119 C-34.3 119 -70.6 119 -108 119 C-108 150.35 -108 181.7 -108 214 C-71.7 214 -35.4 214 2 214 C2.67821687 221.46038556 3.14139638 228.62141042 3.11352539 236.07104492 C3.11367142 237.11628326 3.11381744 238.16152161 3.1139679 239.23843384 C3.11327784 242.65246747 3.10552841 246.06644479 3.09765625 249.48046875 C3.09578884 251.86371328 3.09436646 254.2469582 3.09336853 256.63020325 C3.08956877 262.87229491 3.07976043 269.11436293 3.06866455 275.35644531 C3.05658686 282.86231243 3.05203608 290.36818751 3.04621124 297.87406158 C3.03654713 309.24939078 3.01737281 320.62466821 3 332 C33.36 332.33 63.72 332.66 95 333 C95 295.05 95 257.1 95 218 C95.33 218 95.66 218 96 218 C96 256.28 96 294.56 96 334 C64.32 334 32.64 334 0 334 C0 295.72 0 257.44 0 218 C-36.3 218 -72.6 218 -110 218 C-110 184.67 -110 151.34 -110 117 C-73.7 117 -37.4 117 0 117 C0 78.39 0 39.78 0 0 Z " fill="#D54D4C" transform="translate(370,142)"/>
<path d="M0 0 C6.27 0 12.54 0 19 0 C19 21.12 19 42.24 19 64 C12.73 64 6.46 64 0 64 C-0.66 62.02 -1.32 60.04 -2 58 C-2.33 57.34 -2.66 56.68 -3 56 C-2.29411765 49.29411765 -2.29411765 49.29411765 -1 48 C-0.8775669 46.49683231 -0.82223715 44.98811833 -0.79467773 43.48022461 C-0.77473251 42.51930405 -0.75478729 41.55838348 -0.73423767 40.56834412 C-0.71752518 39.523564 -0.70081268 38.47878387 -0.68359375 37.40234375 C-0.66281265 36.33834854 -0.64203156 35.27435333 -0.62062073 34.17811584 C-0.55500746 30.7646456 -0.49618577 27.35109571 -0.4375 23.9375 C-0.39432597 21.62954891 -0.35071206 19.321606 -0.30664062 17.01367188 C-0.19931411 11.34253045 -0.09808024 5.67130857 0 0 Z " fill="#030305" transform="translate(299,577)"/>
<path d="M0 0 C0 2.64 0 5.28 0 8 C-0.66 8.33 -1.32 8.66 -2 9 C-2.33 37.71 -2.66 66.42 -3 96 C-2.01 96 -1.02 96 0 96 C0 97.65 0 99.3 0 101 C-0.99 101.495 -0.99 101.495 -2 102 C-2.16687448 104.41645782 -2.16687448 104.41645782 -2 107 C-1.34 107.66 -0.68 108.32 0 109 C-0.99 109.33 -1.98 109.66 -3 110 C-3.33 110.99 -3.66 111.98 -4 113 C-5.32 112.67 -6.64 112.34 -8 112 C-8 112.66 -8 113.32 -8 114 C-9.32 113.67 -10.64 113.34 -12 113 C-12 112.01 -12 111.02 -12 110 C-13.99983534 110.79117904 -13.99983534 110.79117904 -16 112 C-16.33 112.99 -16.66 113.98 -17 115 C-17.66 115 -18.32 115 -19 115 C-19 113.35 -19 111.7 -19 110 C-19.49538269 110.32531708 -19.99076538 110.65063416 -20.50115967 110.98580933 C-23.97471353 112.39560165 -27.29310521 112.26230055 -30.98144531 112.22705078 C-31.7818222 112.22734283 -32.5821991 112.22763489 -33.40682983 112.22793579 C-36.04737256 112.22654455 -38.68763168 112.21099308 -41.328125 112.1953125 C-43.16086676 112.19158164 -44.99361051 112.18873501 -46.82635498 112.18673706 C-51.64654054 112.17910637 -56.46660529 112.15946269 -61.28674316 112.1373291 C-66.20677048 112.11685855 -71.12681735 112.10773275 -76.046875 112.09765625 C-85.6979697 112.0762163 -95.3489748 112.04208712 -105 112 C-105 111.34 -105 110.68 -105 110 C-107.64 110 -110.28 110 -113 110 C-113 110.66 -113 111.32 -113 112 C-113.66 112 -114.32 112 -115 112 C-114.99907821 112.5702207 -114.99815641 113.1404414 -114.99720669 113.72794151 C-114.97514134 127.59001883 -114.95864728 141.45209308 -114.94818783 155.31418419 C-114.9430272 162.01773076 -114.93598892 168.72126563 -114.92456055 175.42480469 C-114.91372707 181.88921865 -114.90772218 188.35362042 -114.90512276 194.81804276 C-114.90326934 197.28929461 -114.89965033 199.76054576 -114.89426994 202.23179245 C-114.88705343 205.68237521 -114.88600932 209.13290705 -114.88647461 212.58349609 C-114.88287933 213.61423752 -114.87928406 214.64497894 -114.87557983 215.70695496 C-114.8769545 216.64367538 -114.87832916 217.58039581 -114.87974548 218.54550171 C-114.87882369 219.36221029 -114.8779019 220.17891888 -114.87695217 221.02037621 C-115 223 -115 223 -116 225 C-148.01 225 -180.02 225 -213 225 C-213 224.67 -213 224.34 -213 224 C-181.32 224 -149.64 224 -117 224 C-117 185.72 -117 147.44 -117 108 C-80.37 108 -43.74 108 -6 108 C-6 74.67 -6 41.34 -6 7 C-5.34 7 -4.68 7 -4 7 C-4.33 5.02 -4.66 3.04 -5 1 C-2 0 -2 0 0 0 Z " fill="#F9F9EF" transform="translate(583,252)"/>
<path d="M0 0 C2.31168213 2.16254135 3.11979643 3.76469577 3.9375 6.8125 C3.9375 8.1325 3.9375 9.4525 3.9375 10.8125 C4.5975 10.8125 5.2575 10.8125 5.9375 10.8125 C6.57874733 27.50868051 6.57874733 27.50868051 2.9375 33.8125 C-0.00985217 36.24406554 -1.25069223 36.8125 -5.0625 36.8125 C-5.0625 37.4725 -5.0625 38.1325 -5.0625 38.8125 C-14.84835462 39.38813851 -14.84835462 39.38813851 -19.0625 35.8125 C-24.02380632 28.61860583 -22.78503909 16.3793353 -21.71875 8.1640625 C-20.93530011 4.65159549 -20.11100568 1.88548386 -17.0625 -0.1875 C-11.58139428 -2.01453524 -5.39752099 -2.0929163 0 0 Z " fill="#F1F1F1" transform="translate(200.0625,734.1875)"/>
<path d="M0 0 C10.3119505 -1.21914686 10.3119505 -1.21914686 14.3203125 1.67578125 C20.55982699 8.8159788 20.61248203 15.92078567 20.20556641 25.00439453 C19.7572351 29.35672245 18.05474952 33.1840366 16 37 C15.34 37 14.68 37 14 37 C14 37.66 14 38.32 14 39 C2.47835991 40.51708428 2.47835991 40.51708428 -3 38 C-3 37.34 -3 36.68 -3 36 C-3.66 36 -4.32 36 -5 36 C-9.09494554 29.17509077 -8.9377505 19.18616799 -7.55078125 11.515625 C-7.08757954 9.66281815 -6.55194952 7.82833279 -6 6 C-5.34 6 -4.68 6 -4 6 C-3.67 4.68 -3.34 3.36 -3 2 C-2.01 2 -1.02 2 0 2 C0 1.34 0 0.68 0 0 Z " fill="#F3F3F3" transform="translate(567,589)"/>
<path d="M0 0 C1.47905238 2.95810476 1.12190903 5.9547155 1.09765625 9.1953125 C1.0962413 9.90275604 1.09482635 10.61019958 1.09336853 11.33908081 C1.087766 13.60109669 1.07521318 15.86301398 1.0625 18.125 C1.05748532 19.65755065 1.05292236 21.19010286 1.04882812 22.72265625 C1.03779577 26.48180888 1.02052952 30.24088772 1 34 C-6.66581571 37.39482923 -6.66581571 37.39482923 -10.75 37.25 C-11.48734375 37.23453125 -12.2246875 37.2190625 -12.984375 37.203125 C-15 37 -15 37 -18 36 C-18 35.34 -18 34.68 -18 34 C-18.639375 33.7525 -19.27875 33.505 -19.9375 33.25 C-22 32 -22 32 -22.6184082 30.16333008 C-23.2314524 26.68784407 -23.18445977 23.20504569 -23.1875 19.6875 C-23.19974609 18.95337891 -23.21199219 18.21925781 -23.22460938 17.46289062 C-23.23754092 12.60493987 -22.73897851 8.55831907 -21 4 C-18 2 -18 2 -15 2 C-15 1.34 -15 0.68 -15 0 C-10.11052208 -1.46684337 -4.94877422 -1.05390562 0 0 Z " fill="#F3F3F3" transform="translate(367,734)"/>
<path d="M0 0 C36.3 0 72.6 0 110 0 C110.67821687 7.46038556 111.14139638 14.62141042 111.11352539 22.07104492 C111.11367142 23.11628326 111.11381744 24.16152161 111.1139679 25.23843384 C111.11327784 28.65246747 111.10552841 32.06644479 111.09765625 35.48046875 C111.09578884 37.86371328 111.09436646 40.2469582 111.09336853 42.63020325 C111.08956877 48.87229491 111.07976043 55.11436293 111.06866455 61.35644531 C111.05658686 68.86231243 111.05203608 76.36818751 111.04621124 83.87406158 C111.03654713 95.24939078 111.01737281 106.62466821 111 118 C141.36 118.33 171.72 118.66 203 119 C203 81.05 203 43.1 203 4 C203.33 4 203.66 4 204 4 C204 42.28 204 80.56 204 120 C172.32 120 140.64 120 108 120 C108 81.39 108 42.78 108 3 C72.36 3 36.72 3 0 3 C0 2.01 0 1.02 0 0 Z " fill="#DE393A" transform="translate(262,356)"/>
<path d="M0 0 C4.29 0 8.58 0 13 0 C12.47766614 6.00683945 10.94594259 11.69730333 8 17 C7.01 17.33 6.02 17.66 5 18 C4.67 18.66 4.34 19.32 4 20 C-0.29 20 -4.58 20 -9 20 C-9 19.34 -9 18.68 -9 18 C-9.969375 17.87625 -10.93875 17.7525 -11.9375 17.625 C-13.4534375 17.315625 -13.4534375 17.315625 -15 17 C-15.33 16.34 -15.66 15.68 -16 15 C-17.88764903 14.31527335 -17.88764903 14.31527335 -20.0625 13.875 C-21.16271484 13.62363281 -21.16271484 13.62363281 -22.28515625 13.3671875 C-22.85105469 13.24601563 -23.41695312 13.12484375 -24 13 C-24.33 15.64 -24.66 18.28 -25 21 C-29.62 21 -34.24 21 -39 21 C-39.22980504 14.33565389 -39.11828429 9.50849455 -34.625 4.1875 C-29.9472423 0.28936859 -24.94046551 0.67770462 -19.03125 0.69921875 C-15.34092239 1.06539816 -13.02668628 2.23827961 -9.890625 4.109375 C-6.60165463 5.65872468 -3.57178373 5.25512741 0 5 C0 3.35 0 1.7 0 0 Z " fill="#19191A" transform="translate(676,691)"/>
<path d="M0 0 C0.66 0 1.32 0 2 0 C2.33 36.96 2.66 73.92 3 112 C34.02 112 65.04 112 97 112 C97.33 112.66 97.66 113.32 98 114 C101.04581269 114.46954261 101.04581269 114.46954261 104.5625 114.625 C105.76003906 114.69976562 106.95757813 114.77453125 108.19140625 114.8515625 C109.58166016 114.92503906 109.58166016 114.92503906 111 115 C111 115.33 111 115.66 111 116 C74.37 116 37.74 116 0 116 C0 77.72 0 39.44 0 0 Z " fill="#F3DDD7" transform="translate(466,143)"/>
<path d="M0 0 C0.33 0 0.66 0 1 0 C1 33.66 1 67.32 1 102 C-34.97 102 -70.94 102 -108 102 C-108.06058594 110.20617187 -108.12117188 118.41234375 -108.18359375 126.8671875 C-108.22921335 132.71251002 -108.27545119 138.55782507 -108.32258511 144.4031353 C-108.38362372 151.98309393 -108.44318381 159.56305496 -108.49731445 167.14306641 C-108.54473394 173.78258203 -108.59725383 180.42204445 -108.65294075 187.06149673 C-108.67338491 189.59971935 -108.69209451 192.13795653 -108.70907402 194.67620468 C-108.73307244 198.22022538 -108.76313322 201.76414506 -108.79467773 205.30810547 C-108.8004332 206.36689911 -108.80618866 207.42569275 -108.81211853 208.51657104 C-108.82190735 209.47853394 -108.83169617 210.44049683 -108.84178162 211.43161011 C-108.84823417 212.27044172 -108.85468672 213.10927334 -108.8613348 213.97352409 C-109 216 -109 216 -110 218 C-142.01 218 -174.02 218 -207 218 C-207 217.67 -207 217.34 -207 217 C-175.32 217 -143.64 217 -111 217 C-111 178.72 -111 140.44 -111 101 C-74.37 101 -37.74 101 0 101 C0 67.67 0 34.34 0 0 Z " fill="#EAC4BA" transform="translate(577,259)"/>
<path d="M0 0 C36.63 0 73.26 0 111 0 C111 33.33 111 66.66 111 101 C74.7 101 38.4 101 1 101 C1 100.67 1 100.34 1 100 C52.48 99.505 52.48 99.505 105 99 C105.33 98.34 105.66 97.68 106 97 C106.99 97 107.98 97 109 97 C109 65.65 109 34.3 109 2 C73.36 2 37.72 2 1 2 C0.67 2.66 0.34 3.32 0 4 C0 2.68 0 1.36 0 0 Z " fill="#C04647" transform="translate(466,259)"/>
<path d="M0 0 C2.660625 -0.0825 5.32125 -0.165 8.0625 -0.25 C8.8862915 -0.28641602 9.71008301 -0.32283203 10.55883789 -0.36035156 C16.18087718 -0.44383053 19.3824827 0.77735771 24 4 C25.8188338 7.39515642 25.06291781 12.22493151 25 16 C24.34 16 23.68 16 23 16 C23 16.66 23 17.32 23 18 C22.34 18 21.68 18 21 18 C20.67 18.99 20.34 19.98 20 21 C19.01 21 18.02 21 17 21 C17 21.66 17 22.32 17 23 C11.39 23 5.78 23 0 23 C0 15.41 0 7.82 0 0 Z " fill="#F4F4F5" transform="translate(474,571)"/>
<path d="M0 0 C36.3 0 72.6 0 110 0 C110 0.33 110 0.66 110 1 C56.54 1.495 56.54 1.495 2 2 C2 34.34 2 66.68 2 100 C37.64 100 73.28 100 110 100 C110 100.33 110 100.66 110 101 C73.7 101 37.4 101 0 101 C0 67.67 0 34.34 0 0 Z " fill="#AF4340" transform="translate(260,259)"/>
<path d="M0 0 C0.33 0.66 0.66 1.32 1 2 C1.99 2 2.98 2 4 2 C4 35.33 4 68.66 4 103 C40.3 103 76.6 103 114 103 C114 103.33 114 103.66 114 104 C60.54 104.495 60.54 104.495 6 105 C6.33 106.32 6.66 107.64 7 109 C4.69 109 2.38 109 0 109 C0.03255208 106.98177083 0.06510417 104.96354167 0.09765625 102.9453125 C0.12649242 100.91814596 0.12649242 100.91814596 -1 99 C-0.29411765 92.29411765 -0.29411765 92.29411765 1 91 C1.12509834 88.35348657 1.18605995 85.73177781 1.20532227 83.08374023 C1.21522186 82.25454071 1.22512146 81.42534119 1.23532104 80.5710144 C1.2670312 77.81690371 1.29173088 75.06277574 1.31640625 72.30859375 C1.33696757 70.40429727 1.35796382 68.50000545 1.37937927 66.59571838 C1.43468485 61.57337194 1.48405656 56.55098373 1.53222656 51.52856445 C1.58237979 46.40767685 1.63809803 41.2868502 1.69335938 36.16601562 C1.80104467 26.1107291 1.90246645 16.05538975 2 6 C1.34 6 0.68 6 0 6 C-0.38218767 4.34385343 -0.71395102 2.67542976 -1 1 C-0.67 0.67 -0.34 0.34 0 0 Z " fill="#FBE8E1" transform="translate(256,257)"/>
<path d="M0 0 C7.59 0 15.18 0 23 0 C23 5.28 23 10.56 23 16 C15.41 16 7.82 16 0 16 C0 10.72 0 5.44 0 0 Z " fill="#0A0A0C" transform="translate(629,551)"/>
<path d="M0 0 C0 4.29 0 8.58 0 13 C-1.98 13.99 -1.98 13.99 -4 15 C-4 15.66 -4 16.32 -4 17 C-7.31070838 18.00109515 -10.30084769 18.10356134 -13.75 18.0625 C-14.73484375 18.05347656 -15.7196875 18.04445313 -16.734375 18.03515625 C-17.48203125 18.02355469 -18.2296875 18.01195312 -19 18 C-19.66 16.68 -20.32 15.36 -21 14 C-21.66 14 -22.32 14 -23 14 C-23.40444137 9.87469806 -23.45832562 7.68748843 -21.125 4.1875 C-14.84001707 -0.21198805 -7.46121789 -0.2763414 0 0 Z " fill="#EFEFEF" transform="translate(754,755)"/>
<path d="M0 0 C36.3 0 72.6 0 110 0 C110 0.99 110 1.98 110 3 C74.36 3 38.72 3 2 3 C2 2.34 2 1.68 2 1 C1.34 0.67 0.68 0.34 0 0 Z " fill="#F9F8F2" transform="translate(260,361)"/>
<path d="M0 0 C0 4.29 0 8.58 0 13 C-5.29697001 15.97373755 -8.78098825 17.69100131 -15 17 C-18.4375 16 -18.4375 16 -21 15 C-22.125 7.375 -22.125 7.375 -21 4 C-14.44330645 -0.37112903 -7.61760948 -0.21160026 0 0 Z " fill="#F6F6F6" transform="translate(710,612)"/>
<path d="M0 0 C7.59 0 15.18 0 23 0 C23 22.11 23 44.22 23 67 C15.41 67 7.82 67 0 67 C0 65.35 0 63.7 0 62 C-1.98 62.495 -1.98 62.495 -4 63 C-2.6875 61.5 -2.6875 61.5 -1 60 C-0.01 60 0.98 60 2 60 C2 61.65 2 63.3 2 65 C8.27 65 14.54 65 21 65 C21 43.88 21 22.76 21 1 C14.73 1 8.46 1 2 1 C2 16.18 2 31.36 2 47 C1.01 47 0.02 47 -1 47 C-0.67 31.49 -0.34 15.98 0 0 Z " fill="#6E6E70" transform="translate(297,576)"/>
<path d="M0 0 C1.04929687 -0.01417969 2.09859375 -0.02835938 3.1796875 -0.04296875 C6.0850735 0.18437578 7.7251771 0.57071791 10.125 2.1875 C10.875 4.3125 10.875 4.3125 11.125 6.1875 C11.785 6.1875 12.445 6.1875 13.125 6.1875 C13.125 8.4975 13.125 10.8075 13.125 13.1875 C4.215 13.1875 -4.695 13.1875 -13.875 13.1875 C-12.73666008 5.21912055 -12.73666008 5.21912055 -7.875 1.1875 C-5.17835792 -0.16082104 -3.00912479 0.01839318 0 0 Z " fill="#E2E2E2" transform="translate(581.875,731.8125)"/>
<path d="M0 0 C0.33 0 0.66 0 1 0 C1 35.64 1 71.28 1 108 C1.99 108 2.98 108 4 108 C3.505 109.98 3.505 109.98 3 112 C2.01 112 1.02 112 0 112 C-0.66 113.65 -1.32 115.3 -2 117 C-3.41623216 117.05447047 -4.83308191 117.09300508 -6.25 117.125 C-7.43335938 117.15980469 -7.43335938 117.15980469 -8.640625 117.1953125 C-11 117 -11 117 -12.6428833 116.00772095 C-16.0588028 114.54733775 -19.41860111 114.69151652 -23.07324219 114.68115234 C-23.88337265 114.67110672 -24.69350311 114.6610611 -25.52818298 114.65071106 C-28.20107323 114.61986534 -30.87386324 114.6028401 -33.546875 114.5859375 C-35.40204735 114.56722697 -37.25721119 114.54765364 -39.11236572 114.5272522 C-43.99162779 114.47591289 -48.87091746 114.43629676 -53.75030518 114.39910889 C-58.73074175 114.35908055 -63.71106334 114.30798286 -68.69140625 114.2578125 C-78.46085675 114.16103189 -88.23037215 114.07663389 -98 114 C-98 113.67 -98 113.34 -98 113 C-65.99 113 -33.98 113 -1 113 C-0.67 75.71 -0.34 38.42 0 0 Z " fill="#FDF4E6" transform="translate(468,364)"/>
<path d="M0 0 C0.33 0 0.66 0 1 0 C1 37.95 1 75.9 1 115 C-0.65 115 -2.3 115 -4 115 C-4 114.01 -4 113.02 -4 112 C-3.01 112 -2.02 112 -1 112 C-1.00138269 111.14328626 -1.00138269 111.14328626 -1.00279331 110.26926517 C-1.02484956 96.39084823 -1.04134829 82.51243434 -1.05181217 68.63400364 C-1.05697489 61.92258132 -1.06401713 55.21117068 -1.07543945 48.49975586 C-1.08626565 42.02886264 -1.09227626 35.55798158 -1.09487724 29.08708 C-1.09673198 26.61221055 -1.1003535 24.1373418 -1.10573006 21.66247749 C-1.11293693 18.20929627 -1.11399109 14.75616599 -1.11352539 11.30297852 C-1.11712067 10.26864182 -1.12071594 9.23430511 -1.12442017 8.16862488 C-1.1230455 7.23327911 -1.12167084 6.29793335 -1.12025452 5.33424377 C-1.12163721 4.10779821 -1.12163721 4.10779821 -1.12304783 2.85657597 C-1 1 -1 1 0 0 Z " fill="#D71D21" transform="translate(464,360)"/>
<path d="M0 0 C0.33 0 0.66 0 1 0 C1.33 36.96 1.66 73.92 2 112 C3.32 112.33 4.64 112.66 6 113 C6 113.66 6 114.32 6 115 C4.00045254 115.04254356 1.99958364 115.04080783 0 115 C-1.54557785 113.45442215 -1.12594197 112.01710718 -1.12698364 109.86471558 C-1.12980347 108.97314255 -1.13262329 108.08156952 -1.13552856 107.16297913 C-1.13350433 106.17704269 -1.1314801 105.19110626 -1.12939453 104.17529297 C-1.13114685 103.14275894 -1.13289917 102.11022491 -1.13470459 101.04640198 C-1.13912781 97.61164702 -1.13618218 94.17694304 -1.1328125 90.7421875 C-1.13348571 88.36141958 -1.13445589 85.98065172 -1.13571167 83.59988403 C-1.13718953 78.59783273 -1.13503241 73.59579924 -1.13037109 68.59375 C-1.12469226 62.18792224 -1.12794052 55.78213654 -1.13394356 49.37631035 C-1.13756261 44.45376267 -1.13640407 39.5312249 -1.13381577 34.60867691 C-1.13314926 32.24762085 -1.13396528 29.88656389 -1.13629532 27.52550888 C-1.13884179 24.2173399 -1.13495224 20.9092382 -1.12939453 17.60107422 C-1.13141876 16.62728317 -1.13344299 15.65349213 -1.13552856 14.65019226 C-1.12003336 9.65794314 -0.85313938 4.92104597 0 0 Z " fill="#D71C17" transform="translate(373,360)"/>
<path d="M0 0 C1.32 0 2.64 0 4 0 C4 0.66 4 1.32 4 2 C5.2984787 1.99555878 6.5969574 1.99111755 7.93478394 1.98654175 C20.14855128 1.94606659 32.36230509 1.91604978 44.57612419 1.89637566 C50.85595359 1.88592113 57.13572901 1.87173155 63.41552734 1.84912109 C69.47146259 1.82745216 75.52734579 1.81544396 81.5833168 1.81024551 C83.89827418 1.80653903 86.21322858 1.79930164 88.52816391 1.78853989 C91.76086419 1.77410405 94.9933471 1.77201873 98.22607422 1.77294922 C99.19136047 1.76575867 100.15664673 1.75856812 101.15118408 1.75115967 C102.02900543 1.753909 102.90682678 1.75665833 103.81124878 1.75949097 C104.57633696 1.75764738 105.34142513 1.75580379 106.1296978 1.75390434 C108 2 108 2 110 4 C73.7 4 37.4 4 0 4 C0 2.68 0 1.36 0 0 Z " fill="#FBEAE9" transform="translate(260,255)"/>
<path d="M0 0 C0.495 0.99 0.495 0.99 1 2 C1.66 2 2.32 2 3 2 C3 2.99 3 3.98 3 5 C3.66 5 4.32 5 5 5 C4.67 5.99 4.34 6.98 4 8 C3.91336194 11.00203219 3.884512 13.98020329 3.90234375 16.98193359 C3.90380402 17.90092941 3.90526428 18.81992523 3.9067688 19.76676941 C3.91057646 21.7638439 3.91669477 23.760915 3.92483521 25.75797653 C3.93758075 28.91846135 3.94411003 32.07890427 3.94897461 35.2394104 C3.96235873 43.09067947 3.98654312 50.94190882 4.01037598 58.79315186 C4.03009983 65.42381185 4.04574504 72.054457 4.05593872 78.6851387 C4.06242278 81.79885767 4.07493239 84.91251574 4.08764648 88.0262146 C4.09127955 89.93723497 4.09463121 91.84825591 4.09765625 93.75927734 C4.10282257 94.62490799 4.10798889 95.49053864 4.11331177 96.38240051 C4.11366424 100.39178995 4.00524865 104.08714541 3 108 C2.67 108 2.34 108 2 108 C2 73.68 2 39.36 2 4 C-30.34 3.67 -62.68 3.34 -96 3 C-96 2.67 -96 2.34 -96 2 C-94.81205338 1.98969254 -93.62410675 1.97938507 -92.40016174 1.96876526 C-81.23086589 1.87121067 -70.06162798 1.7684941 -58.89242649 1.66066074 C-53.1495771 1.60538387 -47.40672267 1.5519564 -41.66381836 1.50268555 C-36.1265548 1.4551121 -30.58935533 1.40277211 -25.05216789 1.34705925 C-22.93457564 1.32660378 -20.81696578 1.30789611 -18.69934273 1.29092598 C-15.74423961 1.26695237 -12.78925886 1.23688857 -9.83422852 1.20532227 C-8.94950363 1.1995668 -8.06477875 1.19381134 -7.15324402 1.18788147 C-3.26300121 1.52196848 -3.26300121 1.52196848 0 0 Z M4 97 C5 101 5 101 5 101 Z " fill="#FDEFEB" transform="translate(466,139)"/>
<path d="M0 0 C2.66666667 0 5.33333333 0 8 0 C8 1.32 8 2.64 8 4 C36.71 4 65.42 4 95 4 C94.67 4.66 94.34 5.32 94 6 C62.98 6 31.96 6 0 6 C0 4.02 0 2.04 0 0 Z " fill="#F1F9FB" transform="translate(469,249)"/>
<path d="M0 0 C0.33 0 0.66 0 1 0 C1 28.38 1 56.76 1 86 C7.93 86 14.86 86 22 86 C22 75.44 22 64.88 22 54 C25.63 54 29.26 54 33 54 C33 54.66 33 55.32 33 56 C30.03 56 27.06 56 24 56 C24.00785522 57.40076782 24.00785522 57.40076782 24.01586914 58.82983398 C24.0328762 62.28312796 24.04543302 65.73637767 24.05493164 69.18969727 C24.05997121 70.68644918 24.06680287 72.18319616 24.07543945 73.67993164 C24.08752159 75.82699807 24.09323191 77.97399962 24.09765625 80.12109375 C24.10551147 82.06133423 24.10551147 82.06133423 24.11352539 84.04077148 C24 87 24 87 23 88 C21.37742456 88.0991657 19.75060169 88.13079777 18.125 88.1328125 C17.14015625 88.13410156 16.1553125 88.13539063 15.140625 88.13671875 C14.10421875 88.13285156 13.0678125 88.12898437 12 88.125 C10.44539063 88.13080078 10.44539063 88.13080078 8.859375 88.13671875 C7.87453125 88.13542969 6.8896875 88.13414062 5.875 88.1328125 C4.96492188 88.13168457 4.05484375 88.13055664 3.1171875 88.12939453 C1 88 1 88 0 87 C-0.09514592 84.29161914 -0.12554932 81.60881487 -0.11352539 78.90014648 C-0.11367142 78.05143982 -0.11381744 77.20273315 -0.1139679 76.32830811 C-0.11326848 73.50921109 -0.10547478 70.69017929 -0.09765625 67.87109375 C-0.09579217 65.92196183 -0.09436822 63.97282945 -0.09336853 62.0236969 C-0.08954255 56.88293168 -0.07971159 51.74219453 -0.06866455 46.60144043 C-0.05845215 41.35994852 -0.05387128 36.1184521 -0.04882812 30.87695312 C-0.03808939 20.58462306 -0.02101201 10.29231386 0 0 Z " fill="#767676" transform="translate(450,555)"/>
<path d="M0 0 C1.81242052 -0.02687279 3.62495233 -0.04633715 5.4375 -0.0625 C6.44683594 -0.07410156 7.45617187 -0.08570313 8.49609375 -0.09765625 C11 0 11 0 12 1 C14.64651343 1.12509834 17.26822219 1.18605995 19.91625977 1.20532227 C20.74545929 1.21522186 21.57465881 1.22512146 22.4289856 1.23532104 C25.18309629 1.2670312 27.93722426 1.29173088 30.69140625 1.31640625 C32.59570273 1.33696757 34.49999455 1.35796382 36.40428162 1.37937927 C41.42662806 1.43468485 46.44901627 1.48405656 51.47143555 1.53222656 C56.59232315 1.58237979 61.7131498 1.63809803 66.83398438 1.69335938 C76.8892709 1.80104467 86.94461025 1.90246645 97 2 C97 1.34 97 0.68 97 0 C98.65 0 100.3 0 102 0 C102 0.99 102 1.98 102 3 C51.51 3.495 51.51 3.495 0 4 C0 2.68 0 1.36 0 0 Z " fill="#D32827" transform="translate(465,356)"/>
<path d="M0 0 C1.32 0.33 2.64 0.66 4 1 C3.67 1.33 3.34 1.66 3 2 C2.87802192 3.38050858 2.82231101 4.76697647 2.79467773 6.15258789 C2.77473251 7.03342545 2.75478729 7.914263 2.73423767 8.8217926 C2.71752518 9.77907761 2.70081268 10.73636261 2.68359375 11.72265625 C2.66281265 12.69786728 2.64203156 13.67307831 2.62062073 14.67784119 C2.55501588 17.8059863 2.49618972 20.93421822 2.4375 24.0625 C2.39432517 26.1777435 2.35071123 28.29297809 2.30664062 30.40820312 C2.19849362 35.60538093 2.09950176 40.80262059 2 46 C-5.26 46 -12.52 46 -20 46 C-20 45.67 -20 45.34 -20 45 C-13.4 45 -6.8 45 0 45 C0 30.15 0 15.3 0 0 Z " fill="#B0B0B0" transform="translate(216,597)"/>
<path d="M0 0 C0.33 0 0.66 0 1 0 C1 32.34 1 64.68 1 98 C-0.65 98 -2.3 98 -4 98 C-3.67 97.01 -3.34 96.02 -3 95 C-2.01 95 -1.02 95 0 95 C0 63.65 0 32.3 0 0 Z " fill="#CE2326" transform="translate(575,261)"/>
<path d="M0 0 C5.61 0 11.22 0 17 0 C17 0.66 17 1.32 17 2 C15.43867691 2.1970602 13.87584736 2.38220155 12.3125 2.5625 C11.44238281 2.66691406 10.57226562 2.77132812 9.67578125 2.87890625 C7 3 7 3 2 2 C2 6.62 2 11.24 2 16 C10.25 16.33 18.5 16.66 27 17 C27 17.33 27 17.66 27 18 C23.06256167 18.05797565 19.12523281 18.09358789 15.1875 18.125 C14.06794922 18.14175781 12.94839844 18.15851562 11.79492188 18.17578125 C10.72177734 18.18222656 9.64863281 18.18867187 8.54296875 18.1953125 C7.0583313 18.21102295 7.0583313 18.21102295 5.54370117 18.22705078 C3 18 3 18 0 16 C-0.2224948 13.19359893 -0.28088481 10.66883108 -0.1875 7.875 C-0.125625 5.27625 -0.06375 2.6775 0 0 Z " fill="#8A8A8A" transform="translate(609,649)"/>
<path d="M0 0 C4.75 0.75 4.75 0.75 7 3 C7.33 3.99 7.66 4.98 8 6 C12.95 6 17.9 6 23 6 C23 6.33 23 6.66 23 7 C16.73 7 10.46 7 4 7 C3.67 5.68 3.34 4.36 3 3 C2.01 3 1.02 3 0 3 C0 2.01 0 1.02 0 0 Z " fill="#191919" transform="translate(750,778)"/>
<path d="M0 0 C7.68490153 5.0940919 7.68490153 5.0940919 9 8.875 C9 9.57625 9 10.2775 9 11 C8.34 10.67 7.68 10.34 7 10 C7 9.34 7 8.68 7 8 C6.21625 8.185625 5.4325 8.37125 4.625 8.5625 C2 9 2 9 0 8 C-0.95067299 4.71585695 -1.10102197 3.30306592 0 0 Z " fill="#1C1C1C" transform="translate(511,559)"/>
<path d="M0 0 C0 2.4717493 -0.20371809 4.63277439 -0.5625 7.0625 C-1.33644539 10.77981861 -1.33644539 10.77981861 0 13 C-2.46800047 11.84826645 -4.04783565 10.95216435 -6 9 C-5.34 7.68 -4.68 6.36 -4 5 C-3.34 5 -2.68 5 -2 5 C-2 4.34 -2 3.68 -2 3 C-2.66 2.67 -3.32 2.34 -4 2 C-2.68 1.34 -1.36 0.68 0 0 Z " fill="#0E0E0E" transform="translate(298,623)"/>
<path d="M0 0 C4.62 0 9.24 0 14 0 C13.67 0.99 13.34 1.98 13 3 C11.58430936 3.08167446 10.16723195 3.13949698 8.75 3.1875 C7.96109375 3.22230469 7.1721875 3.25710938 6.359375 3.29296875 C4 3 4 3 0 0 Z " fill="#F1F7F5" transform="translate(453,478)"/>
<path d="M0 0 C0 2.64 0 5.28 0 8 C-0.99 8 -1.98 8 -3 8 C-4.4606285 5.35261084 -5 4.10551666 -5 1 C-2 0 -2 0 0 0 Z " fill="#F3F6F8" transform="translate(583,252)"/>
<path d="M0 0 C0.33 0.66 0.66 1.32 1 2 C1.66 2.33 2.32 2.66 3 3 C2.01 3.66 1.02 4.32 0 5 C-0.40238845 7.36704913 -0.40238845 7.36704913 -0.25 10 C-0.23453125 10.886875 -0.2190625 11.77375 -0.203125 12.6875 C-0.14041756 15.02519411 -0.14041756 15.02519411 1 17 C0.34 17.99 -0.32 18.98 -1 20 C-2.50930882 16.98138236 -2.18438844 13.87008697 -2.1875 10.5625 C-2.19974609 9.88123047 -2.21199219 9.19996094 -2.22460938 8.49804688 C-2.23555848 4.77170191 -2.12005619 3.18008429 0 0 Z " fill="#2B2B2B" transform="translate(712,756)"/>
<path d="M0 0 C0.66 0.33 1.32 0.66 2 1 C0.37660195 2.70884005 -1.29319053 4.37446717 -3 6 C-3.66 6 -4.32 6 -5 6 C-5.33 7.32 -5.66 8.64 -6 10 C-6 9.34 -6 8.68 -6 8 C-6.99 8.33 -7.98 8.66 -9 9 C-8.1875 7.0625 -8.1875 7.0625 -7 5 C-6.01 4.67 -5.02 4.34 -4 4 C-3.67 3.01 -3.34 2.02 -3 1 C-2.01 0.67 -1.02 0.34 0 0 Z " fill="#484849" transform="translate(678,603)"/>
<path d="M0 0 C2 3 2 3 2.9375 6.625 C3.288125 7.73875 3.63875 8.8525 4 10 C4.99 10.33 5.98 10.66 7 11 C6.01 11.495 6.01 11.495 5 12 C4.01 11.67 3.02 11.34 2 11 C2 11.66 2 12.32 2 13 C1.34 12.67 0.68 12.34 0 12 C0 8.04 0 4.08 0 0 Z " fill="#505050" transform="translate(568,757)"/>
<path d="M0 0 C2.97 0.495 2.97 0.495 6 1 C6.33 2.32 6.66 3.64 7 5 C4.69 5 2.38 5 0 5 C0 3.35 0 1.7 0 0 Z " fill="#F3F9F8" transform="translate(256,361)"/>
<path d="M0 0 C1.98 0 3.96 0 6 0 C5.34 1.98 4.68 3.96 4 6 C2.68 6 1.36 6 0 6 C0 4.02 0 2.04 0 0 Z " fill="#E21C24" transform="translate(567,353)"/>
<path d="M0 0 C0 1.98 0 3.96 0 6 C-0.66 6 -1.32 6 -2 6 C-2.33 5.34 -2.66 4.68 -3 4 C-3.33 4.66 -3.66 5.32 -4 6 C-5.32 5.67 -6.64 5.34 -8 5 C-8 4.34 -8 3.68 -8 3 C-1.125 0 -1.125 0 0 0 Z " fill="#C7C7C7" transform="translate(754,780)"/>
<path d="M0 0 C0 0.99 0 1.98 0 3 C-0.7425 3.6496875 -0.7425 3.6496875 -1.5 4.3125 C-3.3314563 6.02209709 -3.3314563 6.02209709 -3.1875 9.1875 C-3.125625 10.115625 -3.06375 11.04375 -3 12 C-5.0625 10.25 -5.0625 10.25 -7 8 C-6.9375 5.8125 -6.9375 5.8125 -6 4 C-5.01 3.67 -4.02 3.34 -3 3 C-1.33289654 1.50014391 -1.33289654 1.50014391 0 0 Z " fill="#C6C6C6" transform="translate(513,599)"/>
<path d="M0 0 C0.99 0.33 1.98 0.66 3 1 C3.33 2.65 3.66 4.3 4 6 C2.02 6.66 0.04 7.32 -2 8 C-2.125 5.125 -2.125 5.125 -2 2 C-1.34 1.34 -0.68 0.68 0 0 Z " fill="#E3E3E3" transform="translate(132,585)"/>
<path d="M0 0 C0.99 0 1.98 0 3 0 C3.33 1.32 3.66 2.64 4 4 C2.68 3.67 1.36 3.34 0 3 C0 5.31 0 7.62 0 10 C-1.32 8.68 -2.64 7.36 -4 6 C-2.1875 3 -2.1875 3 0 0 Z " fill="#18181A" transform="translate(491,610)"/>
<path d="M0 0 C1 3 1 3 -0.3125 5.6875 C-0.869375 6.450625 -1.42625 7.21375 -2 8 C-2.66 8 -3.32 8 -4 8 C-4 7.34 -4 6.68 -4 6 C-4.66 6 -5.32 6 -6 6 C-6 4 -6 4 -4.125 1.875 C-2 0 -2 0 0 0 Z " fill="#1A1A1B" transform="translate(756,766)"/>
<path d="M0 0 C0.88492145 2.47778006 1.11637742 3.66056586 0.25 6.1875 C-1 8 -1 8 -4 9 C-4.66 7.68 -5.32 6.36 -6 5 C-5.01 4.67 -4.02 4.34 -3 4 C-2.67 3.34 -2.34 2.68 -2 2 C-1.34 2 -0.68 2 0 2 C0 1.34 0 0.68 0 0 Z " fill="#353536" transform="translate(497,587)"/>
<path d="M0 0 C0.99 0.33 1.98 0.66 3 1 C1.64038652 5.07884045 -0.30291425 5.93816372 -4 8 C-6.875 8.25 -6.875 8.25 -9 8 C-6 6 -6 6 -3.9375 5.125 C-1.57968326 3.75594512 -0.99644289 2.49110723 0 0 Z " fill="#363636" transform="translate(204,764)"/>
<path d="M0 0 C1.4370809 -0.05422947 2.87475462 -0.09289723 4.3125 -0.125 C5.11300781 -0.14820313 5.91351562 -0.17140625 6.73828125 -0.1953125 C9 0 9 0 12 2 C12 2.66 12 3.32 12 4 C6.06 3.01 6.06 3.01 0 2 C0 1.34 0 0.68 0 0 Z " fill="#3B3B3C" transform="translate(660,734)"/>
<path d="M0 0 C0.66 0.33 1.32 0.66 2 1 C0.875 3.4375 0.875 3.4375 -1 6 C-4.1875 6.8125 -4.1875 6.8125 -7 7 C-5.66667905 3.00003714 -3.5042173 2.16217663 0 0 Z " fill="#3E3E3E" transform="translate(172,721)"/>
<path d="M0 0 C-1.65 1.65 -3.3 3.3 -5 5 C-5.99 4.67 -6.98 4.34 -8 4 C-8 3.01 -8 2.02 -8 1 C-5.29120665 -0.35439668 -2.99066732 -0.06501451 0 0 Z " fill="#EDEDED" transform="translate(173,720)"/>
<path d="M0 0 C0.69480469 0.16371094 1.38960937 0.32742188 2.10546875 0.49609375 C5.2352816 1.04095996 8.13798083 1.09738483 11.3125 1.0625 C12.38113281 1.05347656 13.44976563 1.04445313 14.55078125 1.03515625 C15.76314453 1.01775391 15.76314453 1.01775391 17 1 C13.71857559 2.95174769 11.17216428 3.29714758 7.375 3.3125 C6.41335938 3.32925781 5.45171875 3.34601562 4.4609375 3.36328125 C3.64882813 3.24339844 2.83671875 3.12351562 2 3 C1.34 2.01 0.68 1.02 0 0 Z " fill="#B4B4B4" transform="translate(733,770)"/>
<path d="M0 0 C2.31 0.66 4.62 1.32 7 2 C7 2.66 7 3.32 7 4 C8.32 4.33 9.64 4.66 11 5 C9.02 5 7.04 5 5 5 C5 4.34 5 3.68 5 3 C3.35 2.67 1.7 2.34 0 2 C0 1.34 0 0.68 0 0 Z " fill="#CBCBCB" transform="translate(559,781)"/>
<path d="M0 0 C-1.1446875 0.2165625 -1.1446875 0.2165625 -2.3125 0.4375 C-5.08172908 0.9632594 -5.08172908 0.9632594 -8 2 C-8.33 2.66 -8.66 3.32 -9 4 C-9.66 3.67 -10.32 3.34 -11 3 C-9.53725191 0.73274047 -8.55376366 -0.74991319 -6.0625 -1.875 C-3.50121292 -2.03022952 -2.16590481 -1.31501363 0 0 Z " fill="#4F4F50" transform="translate(652,694)"/>
<path d="M0 0 C0 0.99 0 1.98 0 3 C-0.99 3 -1.98 3 -3 3 C-3 3.66 -3 4.32 -3 5 C-3.66 5 -4.32 5 -5 5 C-5.33 5.99 -5.66 6.98 -6 8 C-6.66 7.67 -7.32 7.34 -8 7 C-4.13157895 0 -4.13157895 0 0 0 Z " fill="#BDBDBD" transform="translate(376,611)"/>
<path d="M0 0 C0.99 0.66 1.98 1.32 3 2 C2.34 3.32 1.68 4.64 1 6 C-1.31 5.01 -3.62 4.02 -6 3 C-6 2.67 -6 2.34 -6 2 C-4.02 2 -2.04 2 0 2 C0 1.34 0 0.68 0 0 Z " fill="#212121" transform="translate(167,569)"/>
<path d="M0 0 C2.875 0.625 2.875 0.625 6 2 C7.375 5.125 7.375 5.125 8 8 C7.01 7.67 6.02 7.34 5 7 C4.855625 6.360625 4.71125 5.72125 4.5625 5.0625 C4.19895007 2.79688294 4.19895007 2.79688294 1.9375 1.75 C1.298125 1.5025 0.65875 1.255 0 1 C0 0.67 0 0.34 0 0 Z " fill="#8B8B8B" transform="translate(604,723)"/>
<path d="M0 0 C0.33 0 0.66 0 1 0 C1 2.64 1 5.28 1 8 C2.65 7.34 4.3 6.68 6 6 C5.34 7.32 4.68 8.64 4 10 C2.68 9.67 1.36 9.34 0 9 C0 6.03 0 3.06 0 0 Z " fill="#353536" transform="translate(513,720)"/>
<path d="M0 0 C0.99 0 1.98 0 3 0 C3 1.98 3 3.96 3 6 C2.01 6.33 1.02 6.66 0 7 C0 4.69 0 2.38 0 0 Z " fill="#D12219" transform="translate(564,346)"/>
<path d="M0 0 C1.125 1.5625 1.125 1.5625 2 4 C1.125 7.75 1.125 7.75 0 11 C-0.66 11 -1.32 11 -2 11 C-1.125 3.375 -1.125 3.375 0 0 Z " fill="#313132" transform="translate(549,738)"/>
<path d="M0 0 C0.75 1.75 0.75 1.75 1 4 C-0.9375 6.25 -0.9375 6.25 -3 8 C-2.74438677 5.6568787 -2.40729228 3.32156597 -2 1 C-1.34 0.67 -0.68 0.34 0 0 Z " fill="#C4C4C4" transform="translate(182,736)"/>
<path d="M0 0 C4.29 0.33 8.58 0.66 13 1 C13 1.33 13 1.66 13 2 C6.565 2.495 6.565 2.495 0 3 C0 2.01 0 1.02 0 0 Z " fill="#3D3D3E" transform="translate(267,734)"/>
<path d="M0 0 C1.32 0.66 2.64 1.32 4 2 C4 2.66 4 3.32 4 4 C3.34 4 2.68 4 2 4 C1.34 4.66 0.68 5.32 0 6 C0 5.34 0 4.68 0 4 C-0.99 3.67 -1.98 3.34 -3 3 C-2.01 2.67 -1.02 2.34 0 2 C0 1.34 0 0.68 0 0 Z " fill="#272728" transform="translate(300,724)"/>
<path d="M0 0 C0.66 1.32 1.32 2.64 2 4 C0.625 5.5 0.625 5.5 -1 7 C-1.66 7 -2.32 7 -3 7 C-2.690625 6.401875 -2.38125 5.80375 -2.0625 5.1875 C-0.89790296 2.91043228 -0.89790296 2.91043228 0 0 Z M2 2 C2.66 2 3.32 2 4 2 C4 2.66 4 3.32 4 4 C3.34 4 2.68 4 2 4 C2 3.34 2 2.68 2 2 Z " fill="#2F2F2F" transform="translate(629,644)"/>
<path d="M0 0 C0.33 0.99 0.66 1.98 1 3 C-0.32 3.33 -1.64 3.66 -3 4 C-3.99 2.68 -4.98 1.36 -6 0 C-3 -1 -3 -1 0 0 Z " fill="#1C1C1C" transform="translate(262,633)"/>
<path d="M0 0 C2.64 0 5.28 0 8 0 C8 1.32 8 2.64 8 4 C5.64828869 3.40138258 3.3140622 2.73075648 1 2 C0.67 1.34 0.34 0.68 0 0 Z " fill="#C6C6C6" transform="translate(170,555)"/>
<path d="M0 0 C0.66 0 1.32 0 2 0 C1.1875 2.9375 1.1875 2.9375 0 6 C-0.99 6.33 -1.98 6.66 -3 7 C-2.67 5.35 -2.34 3.7 -2 2 C-1.34 2 -0.68 2 0 2 C0 1.34 0 0.68 0 0 Z " fill="#252525" transform="translate(647,654)"/>
<path d="M0 0 C0.99 0 1.98 0 3 0 C3 0.99 3 1.98 3 3 C2.01 3 1.02 3 0 3 C0 3.66 0 4.32 0 5 C-1.98 5 -3.96 5 -6 5 C-6 4.67 -6 4.34 -6 4 C-4.35 4 -2.7 4 -1 4 C-0.67 2.68 -0.34 1.36 0 0 Z " fill="#FCEDE8" transform="translate(468,473)"/>
<path d="M0 0 C1.98 0 3.96 0 6 0 C5.01 1.485 5.01 1.485 4 3 C1.375 3.1875 1.375 3.1875 -1 3 C-0.67 2.01 -0.34 1.02 0 0 Z " fill="#FCF0F0" transform="translate(569,255)"/>
</svg>
