<?xml version="1.0" encoding="UTF-8"?>
<svg version="1.1" xmlns="http://www.w3.org/2000/svg" width="225" height="225">
<path d="M0 0 C74.25 0 148.5 0 225 0 C225 74.25 225 148.5 225 225 C150.75 225 76.5 225 0 225 C0 150.75 0 76.5 0 0 Z " fill="#FEFEFE" transform="translate(0,0)"/>
<path d="M0 0 C10.31095712 8.61686478 13.71882482 18.46696057 14.92578125 31.609375 C15.88055135 46.1151804 14.35646448 62.57904244 5.17578125 74.421875 C0.74478973 79.28130845 -5.62185865 82.38384394 -12.18359375 82.8125 C-24.4328084 82.97021521 -24.4328084 82.97021521 -30.07421875 79.609375 C-30.94046875 79.09375 -31.80671875 78.578125 -32.69921875 78.046875 C-37.12711979 73.50245025 -40.07421875 67.97781957 -40.07421875 61.609375 C-34.71326542 60.48075325 -29.52115189 60.51249279 -24.07421875 60.609375 C-23.62046875 61.558125 -23.16671875 62.506875 -22.69921875 63.484375 C-21.27183621 66.61251179 -21.27183621 66.61251179 -19.07421875 68.609375 C-15.18952152 69.04915204 -12.81343948 68.99578583 -9.32421875 67.171875 C-4.44463163 61.61456745 -3.49788737 53.69422 -2.07421875 46.609375 C-2.73421875 46.609375 -3.39421875 46.609375 -4.07421875 46.609375 C-4.07421875 47.269375 -4.07421875 47.929375 -4.07421875 48.609375 C-10.6821583 52.67579934 -16.34472634 53.89430351 -24.07421875 52.609375 C-31.68347975 49.77727645 -36.51568726 44.82261451 -40.07421875 37.609375 C-43.35569993 29.18425724 -43.23148069 20.69626222 -40.07421875 12.234375 C-36.87840115 5.40038087 -31.5644672 -0.29849971 -24.3125 -2.94921875 C-16.01682275 -4.58519001 -7.20477408 -4.83031935 0 0 Z " fill="#EA6829" transform="translate(65.07421875,83.390625)"/>
<path d="M0 0 C49.5 0 99 0 150 0 C150 7.26 150 14.52 150 22 C100.5 22 51 22 0 22 C0 14.74 0 7.48 0 0 Z " fill="#EA6727" transform="translate(23,179)"/>
<path d="M0 0 C1.2684375 0.12375 1.2684375 0.12375 2.5625 0.25 C4.63672208 3.36133312 4.81225941 4.02091526 4.80973816 7.54554749 C4.81393265 8.42185318 4.81812714 9.29815887 4.82244873 10.20101929 C4.81682922 11.15956818 4.81120972 12.11811707 4.80541992 13.10571289 C4.80731827 14.11730972 4.80921661 15.12890656 4.81117249 16.17115784 C4.81488337 19.52173563 4.80417207 22.87209765 4.79296875 26.22265625 C4.79177709 28.54528274 4.79132376 30.86790972 4.7915802 33.1905365 C4.79001483 38.06040459 4.78172052 42.93019922 4.76831055 47.80004883 C4.75131124 54.05386106 4.74749645 60.30759258 4.74825573 66.56142521 C4.7479843 71.35766882 4.7425076 76.15389466 4.73525429 80.95013237 C4.73206408 83.25670678 4.73009939 85.5632832 4.72936058 87.8698597 C4.72720129 91.08783553 4.71846618 94.30572438 4.70776367 97.52368164 C4.70821686 98.48425476 4.70867004 99.44482788 4.70913696 100.43450928 C4.70487198 101.30799515 4.70060699 102.18148102 4.69621277 103.08143616 C4.69453692 103.84262788 4.69286108 104.6038196 4.69113445 105.38807774 C4.5625 107.25 4.5625 107.25 3.5625 109.25 C2.9025 109.25 2.2425 109.25 1.5625 109.25 C1.5625 81.86 1.5625 54.47 1.5625 26.25 C-4.8725 26.745 -4.8725 26.745 -11.4375 27.25 C-14.68247375 31.00943241 -14.68247375 31.00943241 -16.12890625 33.90234375 C-19.71370079 40.33357217 -26.92452949 44.25217651 -33.4375 47.25 C-34.0975 47.25 -34.7575 47.25 -35.4375 47.25 C-35.1075 51.87 -34.7775 56.49 -34.4375 61.25 C-31.85162997 59.98412642 -29.26884499 58.71254151 -26.6875 57.4375 C-25.95789063 57.08107422 -25.22828125 56.72464844 -24.4765625 56.35742188 C-23.76757812 56.00615234 -23.05859375 55.65488281 -22.328125 55.29296875 C-21.67875977 54.97352295 -21.02939453 54.65407715 -20.36035156 54.32495117 C-18.00383752 53.06365464 -18.00383752 53.06365464 -14.4375 50.25 C-14.4375 70.05 -14.4375 89.85 -14.4375 110.25 C-21.3675 110.25 -28.2975 110.25 -35.4375 110.25 C-38.8126286 105.74982854 -38.8126286 105.74982854 -38.81845093 102.22729492 C-38.8269104 101.43664642 -38.83536987 100.64599792 -38.84408569 99.83139038 C-38.838013 98.97308624 -38.83194031 98.1147821 -38.82568359 97.23046875 C-38.83094055 96.31947418 -38.83619751 95.40847961 -38.84161377 94.46987915 C-38.8548163 91.45891163 -38.8460747 88.44847289 -38.8359375 85.4375 C-38.83795816 83.34529519 -38.84086953 81.25309107 -38.84463501 79.16088867 C-38.84905871 74.77613621 -38.84262573 70.39156709 -38.82861328 66.00683594 C-38.81152149 60.38424587 -38.82136241 54.76208541 -38.83933067 49.13951111 C-38.85016719 44.81926227 -38.84672275 40.49911542 -38.8389473 36.17886353 C-38.83694493 34.10560048 -38.83940583 32.03232819 -38.84638596 29.95907593 C-38.85399814 27.06231126 -38.84239928 24.16624394 -38.82568359 21.26953125 C-38.83175629 20.41122711 -38.83782898 19.55292297 -38.84408569 18.66860962 C-38.80664069 15.16888365 -38.75480503 12.85311202 -37.10664368 9.72039795 C-34.45917466 7.38816432 -32.04435525 7.69906085 -28.58203125 7.640625 C-27.92039474 7.62408875 -27.25875824 7.60755249 -26.57707214 7.59051514 C-24.46795399 7.54200712 -22.35955677 7.52066073 -20.25 7.5 C-18.81832305 7.47184223 -17.38667972 7.44191505 -15.95507812 7.41015625 C-12.44937607 7.33625107 -8.94381125 7.28669212 -5.4375 7.25 C-5.128125 6.280625 -4.81875 5.31125 -4.5 4.3125 C-3.11465681 0.31945198 -3.11465681 0.31945198 0 0 Z " fill="#6AC4D7" transform="translate(167.4375,53.75)"/>
<path d="M0 0 C4.29 0 8.58 0 13 0 C13 28.05 13 56.1 13 85 C7.72 85 2.44 85 -3 85 C-3 65.2 -3 45.4 -3 25 C-9.93 29.455 -9.93 29.455 -17 34 C-19.31 34.66 -21.62 35.32 -24 36 C-24 31.05 -24 26.1 -24 21 C-22.370625 20.175 -20.74125 19.35 -19.0625 18.5 C-10.71760276 13.92966324 -4.15168346 8.66438288 0 0 Z " fill="#EB6827" transform="translate(108,80)"/>
<path d="M0 0 C1.69752187 0.25245197 3.38471545 0.57645775 5.0625 0.9375 C5.98160156 1.13214844 6.90070312 1.32679688 7.84765625 1.52734375 C8.91306641 1.76130859 8.91306641 1.76130859 10 2 C10 3.98 10 5.96 10 8 C8.68 8 7.36 8 6 8 C6 8.66 6 9.32 6 10 C8.64 9.67 11.28 9.34 14 9 C14.33 8.01 14.66 7.02 15 6 C13.68 6.33 12.36 6.66 11 7 C11 5.35 11 3.7 11 2 C18.92 1.505 18.92 1.505 27 1 C27.495 1.99 27.495 1.99 28 3 C28.598125 2.835 29.19625 2.67 29.8125 2.5 C32 2 32 2 35 2 C35.495 4.475 35.495 4.475 36 7 C35.01 6.67 34.02 6.34 33 6 C33 6.66 33 7.32 33 8 C32.01 8 31.02 8 30 8 C30 8.66 30 9.32 30 10 C32.97 9.34 35.94 8.68 39 8 C38.34 7.34 37.68 6.68 37 6 C37.375 3.875 37.375 3.875 38 2 C38.99 2 39.98 2 41 2 C41 2.66 41 3.32 41 4 C40.67 4.33 40.34 4.66 40 5 C40.66 5 41.32 5 42 5 C42 4.01 42 3.02 42 2 C42.83144531 2.01160156 43.66289063 2.02320313 44.51953125 2.03515625 C46.14955078 2.04869141 46.14955078 2.04869141 47.8125 2.0625 C49.43091797 2.07990234 49.43091797 2.07990234 51.08203125 2.09765625 C54.06512169 2.13624766 54.06512169 2.13624766 57 1 C57.639375 1.33 58.27875 1.66 58.9375 2 C60.96525921 3.22866351 60.96525921 3.22866351 63.25 2.625 C63.8275 2.41875 64.405 2.2125 65 2 C65 2.99 65 3.98 65 5 C65.66 5 66.32 5 67 5 C66.67 5.99 66.34 6.98 66 8 C64.02 8.33 62.04 8.66 60 9 C63.63 9 67.26 9 71 9 C70.01 8.505 70.01 8.505 69 8 C69 6.02 69 4.04 69 2 C72.3 2 75.6 2 79 2 C79 3.98 79 5.96 79 8 C78.01 8.33 77.02 8.66 76 9 C77.65 9 79.3 9 81 9 C81 6.69 81 4.38 81 2 C106 2 106 2 109 3 C108.67 3.33 108.34 3.66 108 4 C108.66 4 109.32 4 110 4 C110 3.34 110 2.68 110 2 C115.33333333 2 120.66666667 2 126 2 C126 3.65 126 5.3 126 7 C124.865625 6.979375 123.73125 6.95875 122.5625 6.9375 C119.18424326 6.58422523 119.18424326 6.58422523 118 8 C118 8.33 118 8.66 118 9 C124.6 9.33 131.2 9.66 138 10 C138 10.33 138 10.66 138 11 C88.5 11 39 11 -12 11 C-11.67 9.02 -11.34 7.04 -11 5 C-11 4.01 -11 3.02 -11 2 C-10.28972656 1.93941406 -9.57945313 1.87882813 -8.84765625 1.81640625 C-7.46900391 1.69072266 -7.46900391 1.69072266 -6.0625 1.5625 C-5.14597656 1.48128906 -4.22945312 1.40007812 -3.28515625 1.31640625 C-1.03840268 1.23955024 -1.03840268 1.23955024 0 0 Z " fill="#FDF4EB" transform="translate(35,168)"/>
<path d="M0 0 C49.5 0 99 0 150 0 C150 2.31 150 4.62 150 7 C149.67 7 149.34 7 149 7 C149 5.02 149 3.04 149 1 C100.16 1 51.32 1 1 1 C1.33 3.97 1.66 6.94 2 10 C2.66 10.33 3.32 10.66 4 11 C4 12.98 4 14.96 4 17 C5.65 17 7.3 17 9 17 C8.34 17.33 7.68 17.66 7 18 C7 18.66 7 19.32 7 20 C7.66 19.67 8.32 19.34 9 19 C10.66194453 18.64386903 12.328451 18.30791692 14 18 C13.2236068 14.9254644 13.2236068 14.9254644 11 13 C11.99 12.67 12.98 12.34 14 12 C14.33 10.35 14.66 8.7 15 7 C15.33 7 15.66 7 16 7 C16 9.64 16 12.28 16 15 C16.99 15 17.98 15 19 15 C19.33 14.34 19.66 13.68 20 13 C21.32 13.66 22.64 14.32 24 15 C24.33 14.34 24.66 13.68 25 13 C25.721875 13.185625 26.44375 13.37125 27.1875 13.5625 C30.12826973 14.01995307 32.14103058 13.73516357 35 13 C35 13.66 35 14.32 35 15 C35.66 15 36.32 15 37 15 C37.495 16.485 37.495 16.485 38 18 C37.34 18 36.68 18 36 18 C36 18.66 36 19.32 36 20 C38.64 19.34 41.28 18.68 44 18 C42.68 17.34 41.36 16.68 40 16 C42.26184223 13.73815777 46.94623686 14.16684468 50 14 C55.5 14.5 55.5 14.5 58 17 C58 16.34 58 15.68 58 15 C60.97 15 63.94 15 67 15 C67 14.01 67 13.02 67 12 C68.32 12 69.64 12 71 12 C71 12.99 71 13.98 71 15 C72.32 14.67 73.64 14.34 75 14 C74 17 74 17 71 19 C73.37374861 19.33425735 73.37374861 19.33425735 76 19 C76.44601563 18.3503125 76.89203125 17.700625 77.3515625 17.03125 C79 15 79 15 81.41015625 14.390625 C82.28542969 14.34421875 83.16070312 14.2978125 84.0625 14.25 C84.94035156 14.19328125 85.81820312 14.1365625 86.72265625 14.078125 C88.14783693 14.02923372 89.57398095 14 91 14 C91.33 12.68 91.66 11.36 92 10 C92.99 10.33 93.98 10.66 95 11 C95 11.66 95 12.32 95 13 C93.01310269 14.35278115 91.01254782 15.68568305 89 17 C88.67 17.66 88.34 18.32 88 19 C90.97 19.33 93.94 19.66 97 20 C97 19.34 97 18.68 97 18 C97.66 18 98.32 18 99 18 C99 15.36 99 12.72 99 10 C99.66 10 100.32 10 101 10 C101.2475 10.639375 101.495 11.27875 101.75 11.9375 C102.79688294 14.19895007 102.79688294 14.19895007 105.0625 14.5625 C106.0215625 14.7790625 106.0215625 14.7790625 107 15 C107.495 16.485 107.495 16.485 108 18 C107.34 18.33 106.68 18.66 106 19 C109.93584189 19.2835197 113.87313709 19.52104557 117.8125 19.75 C118.93205078 19.83121094 120.05160156 19.91242188 121.20507812 19.99609375 C122.27822266 20.05410156 123.35136719 20.11210937 124.45703125 20.171875 C125.44678955 20.2347168 126.43654785 20.29755859 127.45629883 20.36230469 C130.13402948 20.25007805 130.13402948 20.25007805 131.78393555 18.11425781 C132.56058325 16.7639729 133.30337227 15.39325547 134 14 C135.62580966 14.11398665 137.25067157 14.24155659 138.875 14.375 C139.77992188 14.44460937 140.68484375 14.51421875 141.6171875 14.5859375 C144 15 144 15 146 17 C143.69 17 141.38 17 139 17 C142.07322544 17.91058531 144.80097361 18.08886184 148 18 C147.67 18.66 147.34 19.32 147 20 C147.99 20.99 147.99 20.99 149 22 C99.83 22 50.66 22 0 22 C0 14.74 0 7.48 0 0 Z M31 20 C31 20.33 31 20.66 31 21 C32.65 21 34.3 21 36 21 C36 20.67 36 20.34 36 20 C34.35 20 32.7 20 31 20 Z " fill="#E96421" transform="translate(23,179)"/>
<path d="M0 0 C3.82985827 2.85202211 5.52544033 5.53104942 7 10 C7.30078125 12.9375 7.30078125 12.9375 7.3125 16 C7.32925781 17.010625 7.34601562 18.02125 7.36328125 19.0625 C6.82198216 23.43945607 5.15803695 26.0671369 1.75 28.8125 C-1.82669414 30.35698156 -4.13902368 30.55156805 -8 30 C-12.11874096 26.88806238 -13.97534833 24.03010819 -15 19 C-15.52566866 12.71074992 -15.72479756 7.38026314 -12 2 C-7.98486035 -0.67675977 -4.71933653 -0.8128207 0 0 Z " fill="#FDFCFA" transform="translate(54,94)"/>
<path d="M0 0 C0.33 0.99 0.66 1.98 1 3 C1.99 3 2.98 3 4 3 C4.09765625 9.15234375 4.09765625 9.15234375 4 11 C3.67 11.33 3.34 11.66 3 12 C3.99 12.33 4.98 12.66 6 13 C5.67 12.34 5.34 11.68 5 11 C4.86584528 8.3276379 4.95681459 5.67749512 5 3 C7.875 2.875 7.875 2.875 11 3 C13 5 13 5 13 8 C12.01 8 11.02 8 10 8 C10 7.34 10 6.68 10 6 C9.34 6 8.68 6 8 6 C8 6.99 8 7.98 8 9 C9.32 9 10.64 9 12 9 C12.33 10.32 12.66 11.64 13 13 C12.01 13.66 11.02 14.32 10 15 C10.33 15.66 10.66 16.32 11 17 C2.09 16.67 -6.82 16.34 -16 16 C-15.34 14.35 -14.68 12.7 -14 11 C-15.65 10.67 -17.3 10.34 -19 10 C-19 7.69 -19 5.38 -19 3 C-18.34 3 -17.68 3 -17 3 C-17 4.65 -17 6.3 -17 8 C-16.34 8 -15.68 8 -15 8 C-15 6.35 -15 4.7 -15 3 C-14.01 3 -13.02 3 -12 3 C-11.67 4.32 -11.34 5.64 -11 7 C-10.34 7 -9.68 7 -9 7 C-8.67 5.68 -8.34 4.36 -8 3 C-7.01 3.33 -6.02 3.66 -5 4 C-5 4.66 -5 5.32 -5 6 C-4.34 6 -3.68 6 -3 6 C-3 5.01 -3 4.02 -3 3 C-2.01 3 -1.02 3 0 3 C0 2.01 0 1.02 0 0 Z " fill="#E96828" transform="translate(144,183)"/>
<path d="M0 0 C10.92955064 -0.96816886 20.63782853 2.18792386 29.1875 9.15234375 C36.95681199 17.0723536 41.11831927 27.13587917 41.1875 38.1875 C41.0946875 40.0746875 41.0946875 40.0746875 41 42 C39.0625 42.5625 39.0625 42.5625 37 43 C35.28042059 41.28042059 35.46260035 38.84543403 35.125 36.5 C33.40970757 26.14698498 31.12310889 19.126748 23 12 C16.22680885 7.32137553 9.0701764 5.92904093 1 5 C0.67 3.35 0.34 1.7 0 0 Z " fill="#71C5D7" transform="translate(161,24)"/>
<path d="M0 0 C25 0 25 0 28 1 C27.67 1.33 27.34 1.66 27 2 C27.66 2 28.32 2 29 2 C29 1.34 29 0.68 29 0 C34.33333333 0 39.66666667 0 45 0 C45 1.65 45 3.3 45 5 C43.865625 4.979375 42.73125 4.95875 41.5625 4.9375 C38.18424326 4.58422523 38.18424326 4.58422523 37 6 C37 6.66 37 7.32 37 8 C31.89136104 8.0246501 26.78275641 8.04283607 21.67407227 8.05493164 C19.93480832 8.05997204 18.19554864 8.0668043 16.45629883 8.07543945 C13.96174063 8.08751792 11.46723827 8.09323108 8.97265625 8.09765625 C8.19036148 8.10281754 7.40806671 8.10797882 6.60206604 8.11329651 C4.73432886 8.11349226 2.86670796 8.06199694 1 8 C0 7 0 7 -0.0625 3.4375 C-0.041875 2.303125 -0.02125 1.16875 0 0 Z " fill="#F5FCFC" transform="translate(116,170)"/>
<path d="M0 0 C8.64187138 -0.81186683 14.03196675 1.05160676 20.7890625 6.421875 C25.09823838 10.37018393 27.78148041 14.68335827 28.17578125 20.66796875 C28.18615945 23.12068374 28.1330311 25.55124227 28 28 C26.0625 28.5625 26.0625 28.5625 24 29 C22.33397218 27.33397218 22.51693247 25.09389684 22.1875 22.8125 C21.17022637 17.15528764 19.84199273 13.27235584 15.20703125 9.56640625 C10.83867995 6.5837602 7.31579203 5.5315792 2 5 C1.34 4.34 0.68 3.68 0 3 C0 2.01 0 1.02 0 0 Z " fill="#71C6D8" transform="translate(164,34)"/>
<path d="M0 0 C0.9075 0.350625 1.815 0.70125 2.75 1.0625 C5.87758436 1.96468779 7.05208081 2.13381507 10 1 C10 1.99 10 2.98 10 4 C10.66 4 11.32 4 12 4 C11.67 4.99 11.34 5.98 11 7 C9.02 7.33 7.04 7.66 5 8 C5 8.33 5 8.66 5 9 C-2.59 9 -10.18 9 -18 9 C-17.34 8.34 -16.68 7.68 -16 7 C-16.66 6.34 -17.32 5.68 -18 5 C-17.625 2.875 -17.625 2.875 -17 1 C-16.01 1 -15.02 1 -14 1 C-14 1.66 -14 2.32 -14 3 C-14.33 3.33 -14.66 3.66 -15 4 C-14.34 4 -13.68 4 -13 4 C-13 3.01 -13 2.02 -13 1 C-12.14535156 1.01160156 -11.29070312 1.02320313 -10.41015625 1.03515625 C-8.75306641 1.04869141 -8.75306641 1.04869141 -7.0625 1.0625 C-5.40927734 1.07990234 -5.40927734 1.07990234 -3.72265625 1.09765625 C-1.08552366 1.31262571 -1.08552366 1.31262571 0 0 Z " fill="#CDECF0" transform="translate(90,169)"/>
<path d="M0 0 C2.64 0.33 5.28 0.66 8 1 C7.67 3.64 7.34 6.28 7 9 C7.99 9.33 8.98 9.66 10 10 C9.01 10 8.02 10 7 10 C7 10.66 7 11.32 7 12 C6.34 12 5.68 12 5 12 C5 12.66 5 13.32 5 14 C0.38 14 -4.24 14 -9 14 C-6.8614515 11.8614515 -5.86724686 11.57344937 -3 11 C-4.65 11 -6.3 11 -8 11 C-8 10.67 -8 10.34 -8 10 C-6.9275 9.87625 -5.855 9.7525 -4.75 9.625 C-1.62136385 9.10356064 0.33480424 8.59911746 3 7 C3 6.34 3 5.68 3 5 C2.01 5 1.02 5 0 5 C-0.33 5.99 -0.66 6.98 -1 8 C-3.31 8.33 -5.62 8.66 -8 9 C-8.04241723 6.66705225 -8.04092937 4.33297433 -8 2 C-7 1 -7 1 -4.5 0.875 C-2 1 -2 1 -1 2 C-0.67 1.34 -0.34 0.68 0 0 Z " fill="#E96B29" transform="translate(115,185)"/>
<path d="M0 0 C0.33 0.66 0.66 1.32 1 2 C1.598125 1.835 2.19625 1.67 2.8125 1.5 C5 1 5 1 8 1 C8.33 2.65 8.66 4.3 9 6 C8.01 5.67 7.02 5.34 6 5 C6 5.66 6 6.32 6 7 C5.01 7 4.02 7 3 7 C3 7.66 3 8.32 3 9 C-2.28 9 -7.56 9 -13 9 C-12.67 7.68 -12.34 6.36 -12 5 C-13.32 5.33 -14.64 5.66 -16 6 C-16 4.35 -16 2.7 -16 1 C-10.62915894 0.31798844 -5.41499441 -0.11521265 0 0 Z " fill="#F5FCFC" transform="translate(62,169)"/>
<path d="M0 0 C8.3716575 0.35624074 14.2292751 4.85709399 19.875 10.8125 C24.77346839 16.75416074 26.20180444 23.49696174 27 31 C26.01 31 25.02 31 24 31 C23.67 31.66 23.34 32.32 23 33 C22.34 32.67 21.68 32.34 21 32 C21.04640625 31.3709375 21.0928125 30.741875 21.140625 30.09375 C21.40697345 23.77748666 20.78965373 19.16770963 17 14 C10.67569005 7.24692327 4.11819821 4.58761722 -5 4 C-5 3.67 -5 3.34 -5 3 C-3.35 2.67 -1.7 2.34 0 2 C0 1.34 0 0.68 0 0 Z " fill="#F0FAFA" transform="translate(170,30)"/>
<path d="M0 0 C1.69752187 0.25245197 3.38471545 0.57645775 5.0625 0.9375 C5.98160156 1.13214844 6.90070312 1.32679688 7.84765625 1.52734375 C8.91306641 1.76130859 8.91306641 1.76130859 10 2 C10 3.98 10 5.96 10 8 C8.68 8 7.36 8 6 8 C6 8.66 6 9.32 6 10 C0.39 10 -5.22 10 -11 10 C-11 7.36 -11 4.72 -11 2 C-10.28972656 1.93941406 -9.57945313 1.87882813 -8.84765625 1.81640625 C-7.46900391 1.69072266 -7.46900391 1.69072266 -6.0625 1.5625 C-5.14597656 1.48128906 -4.22945312 1.40007812 -3.28515625 1.31640625 C-1.03840268 1.23955024 -1.03840268 1.23955024 0 0 Z " fill="#D5EEF2" transform="translate(35,168)"/>
<path d="M0 0 C4.62 0 9.24 0 14 0 C13.67 1.65 13.34 3.3 13 5 C13.33 5.99 13.66 6.98 14 8 C12.02 8.33 10.04 8.66 8 9 C10.31 9.33 12.62 9.66 15 10 C11.17482487 12.39073445 7.40334476 12.55966552 3 13 C3.33 11.35 3.66 9.7 4 8 C3.34 8 2.68 8 2 8 C2 6.35 2 4.7 2 3 C1.34 3 0.68 3 0 3 C0 2.01 0 1.02 0 0 Z M-2 13 C-0.35 13 1.3 13 3 13 C3 13.33 3 13.66 3 14 C1.35 14 -0.3 14 -2 14 C-2 13.67 -2 13.34 -2 13 Z " fill="#E96D31" transform="translate(56,186)"/>
<path d="M0 0 C2.875 -0.125 2.875 -0.125 6 0 C6.66 0.66 7.32 1.32 8 2 C8.66 1.34 9.32 0.68 10 0 C12.625 0.375 12.625 0.375 15 1 C15.625 3.375 15.625 3.375 16 6 C15.34 6.66 14.68 7.32 14 8 C12.328451 7.69208308 10.66194453 7.35613097 9 7 C6.85744207 7.38932856 6.85744207 7.38932856 5 8 C3.33333333 8 1.66666667 8 0 8 C0 5.36 0 2.72 0 0 Z " fill="#EEBEA1" transform="translate(39,186)"/>
<path d="M0 0 C5.00566288 -0.29445076 7.99160747 -0.11763863 12 3 C15.62623692 6.49672846 15.59883108 10.18597294 16 15 C14.68 15.33 13.36 15.66 12 16 C11.8040625 15.38511719 11.608125 14.77023438 11.40625 14.13671875 C9.67024281 9.19296798 9.67024281 9.19296798 5.953125 5.734375 C3.52298678 4.81307492 3.52298678 4.81307492 0 4 C0 2.68 0 1.36 0 0 Z " fill="#6FC5D6" transform="translate(167,44)"/>
<path d="M0 0 C2.31 0.33 4.62 0.66 7 1 C6.835 1.78375 6.67 2.5675 6.5 3.375 C5.9376293 5.88208039 5.9376293 5.88208039 6 8 C6 8.99 6 9.98 6 11 C4.68 11.33 3.36 11.66 2 12 C2.66 12.66 3.32 13.32 4 14 C1.03 14 -1.94 14 -5 14 C-3.68 13.67 -2.36 13.34 -1 13 C-1 12.34 -1 11.68 -1 11 C-1.99 10.67 -2.98 10.34 -4 10 C-4 7.36 -4 4.72 -4 2 C-3.01 2 -2.02 2 -1 2 C-0.67 1.34 -0.34 0.68 0 0 Z " fill="#EC692B" transform="translate(31,186)"/>
<path d="M0 0 C0.33 0 0.66 0 1 0 C1 26.07 1 52.14 1 79 C1.66 79 2.32 79 3 79 C2.67 80.32 2.34 81.64 2 83 C1.34 83 0.68 83 0 83 C0 55.61 0 28.22 0 0 Z " fill="#7EC7D3" transform="translate(169,80)"/>
<path d="M0 0 C0.99 0.33 1.98 0.66 3 1 C2.67 1.33 2.34 1.66 2 2 C2.66 2 3.32 2 4 2 C4 1.34 4 0.68 4 0 C9.33333333 0 14.66666667 0 20 0 C20 1.65 20 3.3 20 5 C13.33333333 5 6.66666667 5 0 5 C-0.5625 3.0625 -0.5625 3.0625 -1 1 C-0.67 0.67 -0.34 0.34 0 0 Z " fill="#86CCD6" transform="translate(141,170)"/>
<path d="M0 0 C0.99 0 1.98 0 3 0 C3 0.66 3 1.32 3 2 C2.67 2.33 2.34 2.66 2 3 C2.66 3 3.32 3 4 3 C4 2.01 4 1.02 4 0 C6.31 0 8.62 0 11 0 C11.6875 2.3125 11.6875 2.3125 12 5 C10.84375 6.65625 10.84375 6.65625 9 8 C6.51953125 8.29296875 6.51953125 8.29296875 3.8125 8.1875 C2.91144531 8.16042969 2.01039062 8.13335937 1.08203125 8.10546875 C0.39496094 8.07066406 -0.29210937 8.03585938 -1 8 C-0.34 7.34 0.32 6.68 1 6 C0.34 5.34 -0.32 4.68 -1 4 C-0.625 1.875 -0.625 1.875 0 0 Z " fill="#C7E7EC" transform="translate(73,170)"/>
<path d="M0 0 C3.3 0 6.6 0 10 0 C10 1.98 10 3.96 10 6 C7.73538929 7.37494222 6.54345306 8.07991957 3.875 7.6875 C2 7 2 7 0 6 C0 4.02 0 2.04 0 0 Z " fill="#F3FCFC" transform="translate(104,170)"/>
<path d="M0 0 C0.99 0.33 1.98 0.66 3 1 C3.33 2.65 3.66 4.3 4 6 C4.33 6 4.66 6 5 6 C5 8.64 5 11.28 5 14 C1.37 14 -2.26 14 -6 14 C-6 13.67 -6 13.34 -6 13 C-4.35 12.67 -2.7 12.34 -1 12 C-2.32 12 -3.64 12 -5 12 C-5 11.34 -5 10.68 -5 10 C-3.35 9.67 -1.7 9.34 0 9 C0 6.03 0 3.06 0 0 Z " fill="#EF8A5A" transform="translate(167,186)"/>
<path d="M0 0 C3.33333333 0 6.66666667 0 10 0 C10.33 1.65 10.66 3.3 11 5 C10.01 4.67 9.02 4.34 8 4 C8 4.66 8 5.32 8 6 C7.01 6 6.02 6 5 6 C5 6.66 5 7.32 5 8 C3.35 8 1.7 8 0 8 C0 5.33333333 0 2.66666667 0 0 Z " fill="#E9F7F8" transform="translate(60,170)"/>
<path d="M0 0 C5.59282842 1.36410449 8.91193811 4.15383526 13 8 C12.01 8.495 12.01 8.495 11 9 C10.67 9.99 10.34 10.98 10 12 C9.525625 11.21625 9.05125 10.4325 8.5625 9.625 C5.09107207 6.0689031 1.7954249 5.68652451 -3 5 C-2.67 4.01 -2.34 3.02 -2 2 C-1.34 2 -0.68 2 0 2 C0 1.34 0 0.68 0 0 Z " fill="#EEF9FA" transform="translate(171,39)"/>
<path d="M0 0 C2.475 0.99 2.475 0.99 5 2 C5.33 1.34 5.66 0.68 6 0 C6.99 0 7.98 0 9 0 C9 2.64 9 5.28 9 8 C8.01 8 7.02 8 6 8 C5.34 7.34 4.68 6.68 4 6 C3.34 5.67 2.68 5.34 2 5 C2 5.99 2 6.98 2 8 C1.34 8 0.68 8 0 8 C0 5.36 0 2.72 0 0 Z " fill="#F9F1E8" transform="translate(88,186)"/>
<path d="M0 0 C1.2065625 0.0309375 1.2065625 0.0309375 2.4375 0.0625 C2.7675 2.3725 3.0975 4.6825 3.4375 7.0625 C0.5625 7.6875 0.5625 7.6875 -2.5625 8.0625 C-3.2225 7.4025 -3.8825 6.7425 -4.5625 6.0625 C-3.83457637 0.09352625 -3.83457637 0.09352625 0 0 Z " fill="#F5DFCF" transform="translate(75.5625,185.9375)"/>
<path d="M0 0 C1.98 0 3.96 0 6 0 C7.125 3.75 7.125 3.75 6 6 C6.66 6 7.32 6 8 6 C8 6.66 8 7.32 8 8 C7.4225 7.814375 6.845 7.62875 6.25 7.4375 C3.79307475 6.95976454 2.35602466 7.24270636 0 8 C0 5.36 0 2.72 0 0 Z " fill="#FBF1E7" transform="translate(39,186)"/>
<path d="M0 0 C2.625 0.375 2.625 0.375 5 1 C5.625 3.375 5.625 3.375 6 6 C5.34 6.66 4.68 7.32 4 8 C1.375 7.625 1.375 7.625 -1 7 C-1.625 4.625 -1.625 4.625 -2 2 C-1.34 1.34 -0.68 0.68 0 0 Z " fill="#F8EFE4" transform="translate(100,186)"/>
<path d="M0 0 C2.875 -0.125 2.875 -0.125 6 0 C8 2 8 2 8 5 C7.01 5 6.02 5 5 5 C5 4.34 5 3.68 5 3 C4.34 3 3.68 3 3 3 C3 3.99 3 4.98 3 6 C4.32 6.33 5.64 6.66 7 7 C6 8 6 8 2.9375 8.0625 C1.968125 8.041875 0.99875 8.02125 0 8 C0 5.36 0 2.72 0 0 Z " fill="#F6E7D9" transform="translate(149,186)"/>
<path d="M0 0 C4 0 4 0 6 0.5625 C8.32645375 1.07141176 9.75714248 0.72091849 12 0 C12 1.65 12 3.3 12 5 C8.04 5 4.08 5 0 5 C0 3.35 0 1.7 0 0 Z " fill="#85C9D7" transform="translate(162,170)"/>
<path d="M0 0 C2.31 0.33 4.62 0.66 7 1 C6.67 2.65 6.34 4.3 6 6 C4.68 6 3.36 6 2 6 C2 6.66 2 7.32 2 8 C1.34 8 0.68 8 0 8 C0 5.36 0 2.72 0 0 Z " fill="#F6E2D7" transform="translate(31,186)"/>
<path d="M0 0 C0.66 0 1.32 0 2 0 C2 1.65 2 3.3 2 5 C2.66 5 3.32 5 4 5 C4 3.35 4 1.7 4 0 C4.99 0 5.98 0 7 0 C7.125 2.875 7.125 2.875 7 6 C6.34 6.66 5.68 7.32 5 8 C2.375 7.625 2.375 7.625 0 7 C0 4.69 0 2.38 0 0 Z " fill="#F9EEE3" transform="translate(125,186)"/>
<path d="M0 0 C1.65 0 3.3 0 5 0 C5.33 0.66 5.66 1.32 6 2 C9.02934491 2.65772428 9.02934491 2.65772428 12 3 C12 3.33 12 3.66 12 4 C10.02 4 8.04 4 6 4 C6.33 7.3 6.66 10.6 7 14 C5.35 13.67 3.7 13.34 2 13 C2.99 12.67 3.98 12.34 5 12 C5 9.36 5 6.72 5 4 C3.02 4 1.04 4 -1 4 C-0.67 2.68 -0.34 1.36 0 0 Z " fill="#E7621D" transform="translate(143,182)"/>
<path d="M0 0 C0.99 0.33 1.98 0.66 3 1 C3 1.66 3 2.32 3 3 C3.66 3 4.32 3 5 3 C5 2.01 5 1.02 5 0 C5.99 0 6.98 0 8 0 C7.34 2.64 6.68 5.28 6 8 C4.68 8 3.36 8 2 8 C0.74335022 5.09399739 0 3.20395416 0 0 Z " fill="#F9EDE1" transform="translate(136,186)"/>
<path d="M0 0 C1.32 0.33 2.64 0.66 4 1 C4.33 3.31 4.66 5.62 5 8 C2.69 8 0.38 8 -2 8 C-1.34 5.36 -0.68 2.72 0 0 Z " fill="#FBF6EE" transform="translate(160,186)"/>
<path d="M0 0 C1.2065625 0.0309375 1.2065625 0.0309375 2.4375 0.0625 C2.4375 0.7225 2.4375 1.3825 2.4375 2.0625 C1.4475 2.5575 1.4475 2.5575 0.4375 3.0625 C1.0975 3.3925 1.7575 3.7225 2.4375 4.0625 C2.1075 5.3825 1.7775 6.7025 1.4375 8.0625 C-0.2125 8.0625 -1.8625 8.0625 -3.5625 8.0625 C-3.60491723 5.72955225 -3.60342937 3.39547433 -3.5625 1.0625 C-2.5625 0.0625 -2.5625 0.0625 0 0 Z " fill="#F6E5D5" transform="translate(110.5625,185.9375)"/>
<path d="M0 0 C1.98 0 3.96 0 6 0 C5.814375 0.763125 5.62875 1.52625 5.4375 2.3125 C4.77180827 5.08967375 4.77180827 5.08967375 6 8 C4.02 8 2.04 8 0 8 C0 5.36 0 2.72 0 0 Z " fill="#FBF6EE" transform="translate(64,186)"/>
<path d="M0 0 C1.98 0 3.96 0 6 0 C5.814375 0.763125 5.62875 1.52625 5.4375 2.3125 C4.77180827 5.08967375 4.77180827 5.08967375 6 8 C4.02 8 2.04 8 0 8 C0 5.36 0 2.72 0 0 Z " fill="#FBF5EE" transform="translate(80,186)"/>
<path d="M0 0 C0.66 0.99 1.32 1.98 2 3 C2.66 2.67 3.32 2.34 4 2 C4 4.31 4 6.62 4 9 C2.0625 9.5625 2.0625 9.5625 0 10 C-1 9 -1 9 -1.1328125 7.1875 C-1.13023437 6.465625 -1.12765625 5.74375 -1.125 5 C-1.12757813 4.278125 -1.13015625 3.55625 -1.1328125 2.8125 C-1 1 -1 1 0 0 Z " fill="#70C8D7" transform="translate(188,53)"/>
<path d="M0 0 C1.98 0 3.96 0 6 0 C5.67 2.64 5.34 5.28 5 8 C4.01 8 3.02 8 2 8 C2 6.35 2 4.7 2 3 C1.34 3 0.68 3 0 3 C0 2.01 0 1.02 0 0 Z " fill="#FAEBDE" transform="translate(56,186)"/>
<path d="M0 0 C0.66 0 1.32 0 2 0 C2.33 0.99 2.66 1.98 3 3 C3.66 3.66 4.32 4.32 5 5 C1.3558226 7.4294516 -0.71241272 7.16179575 -5 7 C-5 6.34 -5 5.68 -5 5 C-4.01 5 -3.02 5 -2 5 C-2 4.34 -2 3.68 -2 3 C-1.34 3 -0.68 3 0 3 C0 2.01 0 1.02 0 0 Z " fill="#F0F9FA" transform="translate(70,171)"/>
<path d="M0 0 C1.98 0 3.96 0 6 0 C6 0.99 6 1.98 6 3 C5.34 3 4.68 3 4 3 C4 4.65 4 6.3 4 8 C3.34 8 2.68 8 2 8 C2 6.35 2 4.7 2 3 C1.34 3 0.68 3 0 3 C0 2.01 0 1.02 0 0 Z " fill="#FBF4EC" transform="translate(117,186)"/>
<path d="M0 0 C0.66 0 1.32 0 2 0 C2.33 2.97 2.66 5.94 3 9 C2.01 8.67 1.02 8.34 0 8 C-0.33 8.66 -0.66 9.32 -1 10 C-1.33 7.36 -1.66 4.72 -2 2 C-1.34 2 -0.68 2 0 2 C0 1.34 0 0.68 0 0 Z " fill="#EA621E" transform="translate(133,182)"/>
<path d="M0 0 C1.98 0 3.96 0 6 0 C6 1.65 6 3.3 6 5 C4.02 5 2.04 5 0 5 C0 3.35 0 1.7 0 0 Z " fill="#8CD0D7" transform="translate(24,170)"/>
<path d="M0 0 C0.66 0 1.32 0 2 0 C2 2.64 2 5.28 2 8 C1.34 8 0.68 8 0 8 C0 7.34 0 6.68 0 6 C-1.32 5.67 -2.64 5.34 -4 5 C-3.01 5 -2.02 5 -1 5 C-1 4.34 -1 3.68 -1 3 C-1.99 2.67 -2.98 2.34 -4 2 C-2.68 2 -1.36 2 0 2 C0 1.34 0 0.68 0 0 Z " fill="#E59066" transform="translate(86,186)"/>
<path d="M0 0 C1.98 0 3.96 0 6 0 C6 1.65 6 3.3 6 5 C4.02 5 2.04 5 0 5 C0 3.35 0 1.7 0 0 Z " fill="#81C7D6" transform="translate(122,170)"/>
<path d="M0 0 C1.98 0 3.96 0 6 0 C6 1.65 6 3.3 6 5 C4.02 5 2.04 5 0 5 C0 3.35 0 1.7 0 0 Z " fill="#81C8D6" transform="translate(46,170)"/>
<path d="M0 0 C1.65 0.33 3.3 0.66 5 1 C4.67 2.65 4.34 4.3 4 6 C2.35 6.33 0.7 6.66 -1 7 C-1 6.01 -1 5.02 -1 4 C-0.01 4 0.98 4 2 4 C2.33 3.01 2.66 2.02 3 1 C2.01 0.67 1.02 0.34 0 0 Z " fill="#FBF7EE" transform="translate(50,187)"/>
<path d="M0 0 C0.66 0.33 1.32 0.66 2 1 C2 1.99 2 2.98 2 4 C2.66 4 3.32 4 4 4 C3.67 4.99 3.34 5.98 3 7 C3 6.34 3 5.68 3 5 C2.01 5 1.02 5 0 5 C-0.99 6.485 -0.99 6.485 -2 8 C-2 7.01 -2 6.02 -2 5 C-2.99 4.67 -3.98 4.34 -5 4 C-4.360625 3.71125 -3.72125 3.4225 -3.0625 3.125 C-0.84793921 2.17176549 -0.84793921 2.17176549 0 0 Z " fill="#E47641" transform="translate(115,185)"/>
<path d="M0 0 C1.98 0 3.96 0 6 0 C6 1.65 6 3.3 6 5 C4.02 5 2.04 5 0 5 C0 3.35 0 1.7 0 0 Z " fill="#95D0D9" transform="translate(155,170)"/>
<path d="M0 0 C0.99 0 1.98 0 3 0 C3 2.64 3 5.28 3 8 C2.01 8 1.02 8 0 8 C0 5.36 0 2.72 0 0 Z " fill="#F7E3D5" transform="translate(145,186)"/>
<path d="M0 0 C0.99 0 1.98 0 3 0 C3 2.64 3 5.28 3 8 C2.01 8 1.02 8 0 8 C0 5.36 0 2.72 0 0 Z " fill="#F2CDB7" transform="translate(27,188)"/>
<path d="M0 0 C0.66 0 1.32 0 2 0 C1.4140625 6.15234375 1.4140625 6.15234375 1 8 C0.01 8.495 0.01 8.495 -1 9 C-1 8.34 -1 7.68 -1 7 C-2.32 6.67 -3.64 6.34 -5 6 C-4.01 6 -3.02 6 -2 6 C-2 5.34 -2 4.68 -2 4 C-2.99 3.67 -3.98 3.34 -5 3 C-3.68 3 -2.36 3 -1 3 C-0.67 2.01 -0.34 1.02 0 0 Z " fill="#E78758" transform="translate(71,185)"/>
<path d="M0 0 C1.98 0 3.96 0 6 0 C6.625 1.875 6.625 1.875 7 4 C6.34 4.66 5.68 5.32 5 6 C5 5.34 5 4.68 5 4 C4.01 4 3.02 4 2 4 C1.34 2.68 0.68 1.36 0 0 Z " fill="#F8E7D9" transform="translate(39,186)"/>
<path d="M0 0 C1.65 0 3.3 0 5 0 C5 1.65 5 3.3 5 5 C3.35 5 1.7 5 0 5 C0 3.35 0 1.7 0 0 Z " fill="#7FC6D4" transform="translate(86,170)"/>
<path d="M0 0 C2.475 0.495 2.475 0.495 5 1 C4.67 2.32 4.34 3.64 4 5 C2.68 5 1.36 5 0 5 C0 3.35 0 1.7 0 0 Z " fill="#81C8D4" transform="translate(104,170)"/>
<path d="M0 0 C1.95825873 -0.02694851 3.91662226 -0.04637218 5.875 -0.0625 C6.96554688 -0.07410156 8.05609375 -0.08570313 9.1796875 -0.09765625 C12 0 12 0 14 1 C13.67 1.99 13.34 2.98 13 4 C12.43796875 3.68289062 11.8759375 3.36578125 11.296875 3.0390625 C8.84803683 1.93125475 6.91612145 1.61024601 4.25 1.375 C3.45078125 1.30023438 2.6515625 1.22546875 1.828125 1.1484375 C1.22484375 1.09945312 0.6215625 1.05046875 0 1 C0 0.67 0 0.34 0 0 Z " fill="#FBF0E6" transform="translate(44,166)"/>
<path d="M0 0 C0.99 0 1.98 0 3 0 C3 1.65 3 3.3 3 5 C1.35 5 -0.3 5 -2 5 C-1.34 3.35 -0.68 1.7 0 0 Z " fill="#92D0DB" transform="translate(171,170)"/>
<path d="M0 0 C1.98 0.495 1.98 0.495 4 1 C3.67 2.32 3.34 3.64 3 5 C1.68 4.67 0.36 4.34 -1 4 C-0.67 2.68 -0.34 1.36 0 0 Z " fill="#82C8D3" transform="translate(81,170)"/>
<path d="M0 0 C1.32 0 2.64 0 4 0 C4 1.65 4 3.3 4 5 C2.68 5 1.36 5 0 5 C0 3.35 0 1.7 0 0 Z " fill="#85CAD8" transform="translate(117,170)"/>
<path d="M0 0 C1.32 0 2.64 0 4 0 C4 1.65 4 3.3 4 5 C2.68 5 1.36 5 0 5 C0 3.35 0 1.7 0 0 Z " fill="#82C9D6" transform="translate(41,170)"/>
<path d="M0 0 C1.32 0 2.64 0 4 0 C4 1.65 4 3.3 4 5 C2.68 5 1.36 5 0 5 C0 3.35 0 1.7 0 0 Z " fill="#82CAD8" transform="translate(129,170)"/>
<path d="M0 0 C1.32 0 2.64 0 4 0 C4 1.65 4 3.3 4 5 C2.68 5 1.36 5 0 5 C0 3.35 0 1.7 0 0 Z " fill="#7FCAD6" transform="translate(110,170)"/>
<path d="M0 0 C1.32 0 2.64 0 4 0 C4.33 1.65 4.66 3.3 5 5 C3.35 5 1.7 5 0 5 C0 3.35 0 1.7 0 0 Z " fill="#7BC8D6" transform="translate(134,170)"/>
<path d="M0 0 C0.33 0.99 0.66 1.98 1 3 C2.65 3 4.3 3 6 3 C6 3.66 6 4.32 6 5 C4.68 5 3.36 5 2 5 C2 5.66 2 6.32 2 7 C1.34 7 0.68 7 0 7 C0 4.69 0 2.38 0 0 Z " fill="#FBF7EF" transform="translate(31,187)"/>
<path d="M0 0 C2 3 2 3 2 7 C0.35 6.67 -1.3 6.34 -3 6 C-2.67 4.68 -2.34 3.36 -2 2 C-1.34 2 -0.68 2 0 2 C0 1.34 0 0.68 0 0 Z " fill="#F5E6D7" transform="translate(163,187)"/>
<path d="M0 0 C1.66666667 0 3.33333333 0 5 0 C5 1.65 5 3.3 5 5 C3.33333333 5 1.66666667 5 0 5 C0 3.35 0 1.7 0 0 Z " fill="#79C9D5" transform="translate(60,170)"/>
<path d="M0 0 C1.32 0.33 2.64 0.66 4 1 C3.67 2.32 3.34 3.64 3 5 C1.35 4.67 -0.3 4.34 -2 4 C-1.34 2.68 -0.68 1.36 0 0 Z " fill="#F3BEA0" transform="translate(100,186)"/>
<path d="M0 0 C0.33 0 0.66 0 1 0 C1 2.31 1 4.62 1 7 C-0.32 7.33 -1.64 7.66 -3 8 C-3 7.01 -3 6.02 -3 5 C-2.34 5 -1.68 5 -1 5 C-0.67 3.35 -0.34 1.7 0 0 Z " fill="#67C2D1" transform="translate(191,55)"/>
<path d="M0 0 C0.66 0 1.32 0 2 0 C2 0.66 2 1.32 2 2 C2.99 2 3.98 2 5 2 C5.33 1.34 5.66 0.68 6 0 C6.33 0.99 6.66 1.98 7 3 C6.34 3.66 5.68 4.32 5 5 C2.525 4.01 2.525 4.01 0 3 C0 2.01 0 1.02 0 0 Z " fill="#E99569" transform="translate(152,189)"/>
<path d="M0 0 C0.99 0.33 1.98 0.66 3 1 C3.6875 3.0625 3.6875 3.0625 4 5 C2.35 5 0.7 5 -1 5 C-0.67 3.35 -0.34 1.7 0 0 Z " fill="#7DC7D6" transform="translate(54,170)"/>
<path d="M0 0 C0.99 0 1.98 0 3 0 C3.33 1.65 3.66 3.3 4 5 C2.35 5 0.7 5 -1 5 C-0.67 3.35 -0.34 1.7 0 0 Z " fill="#7FC8D7" transform="translate(67,170)"/>
<path d="M0 0 C0.99 0 1.98 0 3 0 C1.63016497 3.16115776 1.0109362 3.9927092 -2 6 C-1.125 1.125 -1.125 1.125 0 0 Z " fill="#E77139" transform="translate(69,154)"/>
</svg>
